<svg width="375.32788630634445" height="71.56290067766709" viewBox="0 0 375.32788630634445 71.56290067766709" class="css-1j8o68f" xmlns="http://www.w3.org/2000/svg" version="1.0">
   <defs id="SvgjsDefs1351" />
   <g id="SvgjsG1352" featurekey="nRdZyp-0" transform="matrix(0.6541398508183628,0,0,0.6541398508183628,-0.01422222167869285,-6.083500737378049)" fill="#3fc1c9">
      <path xmlns="http://www.w3.org/2000/svg" d="M104.2,10.5c-3-0.8-6.2-1.2-9.3-1.2c-6.9,0-13.7,2-19.5,5.5C73.6,16,64,24.4,64,26.3c0-1.9-9.6-10.3-11.4-11.4  c-5.8-3.6-12.6-5.5-19.5-5.5c-3.1,0-6.2,0.4-9.3,1.2C4.8,15.8-5.1,41.2,2.7,58.6c2.6,5.9,8.2,13.7,13.6,17.2  c0,0,47.7,31.5,47.7,42.9c0-2.8,2.8-6.7,7-11c-0.4-0.9-0.6-1.9-0.6-2.9v-2.4c-2.8,2.7-4.9,5-6.4,7c-3.5-4.5-9.8-10.7-21.1-19.5  c-11.8-9.2-23.8-17.2-24.4-17.5c-4.8-3.1-9.8-10.3-12.1-15.5c-3.4-7.6-3-17.8,1.1-26.6c3.8-8.1,10.1-13.8,17.3-15.8  c2.6-0.7,5.4-1.1,8.2-1.1c6,0,12.2,1.7,17.3,4.9c1.6,1,8.3,7,9.6,9c0.5,1.8,2.1,3,4,3c1.9,0,3.5-1.3,4-3c1.4-2,8.1-8,9.6-9  c5.1-3.2,11.3-4.9,17.3-4.9c2.8,0,5.5,0.4,8.2,1.1c7.2,2,13.5,7.8,17.3,15.8c4.1,8.8,4.6,19,1.1,26.6c-0.6,1.4-1.4,2.9-2.4,4.4  c1.2,0.8,2.2,1.9,2.9,3.2c1.3-2,2.4-4.1,3.3-5.9C133.1,41.2,123.2,15.8,104.2,10.5z" />
      <path xmlns="http://www.w3.org/2000/svg" d="M95,48.5v15.7c0,2.3,1.6,3.9,3.9,3.9h15.7v16.5H98.9c-2.3,0-3.9,1.6-3.9,3.9v15.7H78.5V88.6c0-2.3-1.6-3.9-3.9-3.9H58.8  V68.1h15.7c2.3,0,3.9-1.6,3.9-3.9V48.5h16.3 M95.3,44.4H78.1c-2,0-3.6,1.6-3.6,3.6v16.2H58.3c-2,0-3.6,1.6-3.6,3.6V85  c0,2,1.6,3.6,3.6,3.6h16.2v16.2c0,2,1.6,3.6,3.6,3.6h17.1c2,0,3.6-1.6,3.6-3.6V88.6h16.2c2,0,3.6-1.6,3.6-3.6V67.8  c0-2-1.6-3.6-3.6-3.6H98.9V48C98.9,46,97.3,44.4,95.3,44.4L95.3,44.4z" />
   </g>
   <g id="SvgjsG1353" featurekey="Q4qmbg-0" transform="matrix(3.1073364767934395,0,0,3.1073364767934395,106.76271987034735,-11.084700310040972)" fill="#3fc1c9">
      <path d="M10.82 15.08 l0 0.66 l-7.04 0 c0 1.16 1.18 1.98 2.16 1.98 c0.96 0 1.84 -0.38 2.3 -1.22 l1.98 1.82 c-0.8 1.08 -2.02 1.84 -4.28 1.84 c-3.24 0 -5.22 -2.16 -5.22 -5.08 s1.92 -5.1 5.04 -5.1 s5.06 2.14 5.06 5.1 z M3.84 13.86 l3.88 0 c-0.16 -0.94 -0.84 -1.44 -1.96 -1.44 c-1.08 0 -1.74 0.58 -1.92 1.44 z M14.267708333333331 13.04 l-2.2 -1.26 c1.1 -1.24 2.58 -1.82 4.12 -1.82 c2.96 0 4.16 1.62 4.16 3.14 l0 6.9 l-2.96 0 l0 -0.7 c-0.46 0.48 -1.28 0.84 -2.2 0.84 c-2.7 0 -3.74 -1.2 -3.74 -3.04 c0 -2.08 1.68 -3.48 4.4 -3.48 l1.54 0 c0 -0.74 -0.56 -1.22 -1.4 -1.22 c-0.86 0 -1.28 0.16 -1.72 0.64 z M17.387708333333332 16.740000000000002 l0 -0.88 l-1.74 0 c-0.78 0 -1.36 0.54 -1.24 1.3 c0.08 0.54 0.56 0.76 1.24 0.76 c1.3 0 1.74 -0.74 1.74 -1.18 z M24.59541666666666 13.24 c0 1.18 5 0.62 5 3.74 c0 2.04 -1.8 3.18 -4.04 3.18 c-1.42 0 -2.84 -0.7 -3.96 -1.82 l1.94 -1.94 c0.56 0.68 1.36 1.2 2.02 1.26 s1.22 -0.22 1.32 -0.52 c0.24 -0.76 -1.14 -0.8 -1.56 -0.92 c-1.58 -0.48 -3.42 -1.14 -3.42 -3.1 c0 -2.34 2.44 -3.14 3.66 -3.14 c1.4 0 2.82 0.64 3.96 1.8 l-1.92 1.92 c-0.52 -0.68 -1.42 -1.22 -2.04 -1.22 c-0.32 0 -0.96 0.12 -0.96 0.76 z M37.503125 10.12 l3.08 0 s-2.56 6.02 -4.06 9.6 c-1.34 3.18 -2.32 5.1 -4.46 5.1 c-0.88 0 -1.94 -0.86 -2.24 -1.1 l0.86 -2.44 c0.4 0.38 0.92 0.62 1.34 0.62 c1.02 0 1.56 -2.06 1.9 -3.26 l-3.62 -8.52 l3.08 0 l2.06 4.94 c0.66 -1.6 1.42 -3.42 2.06 -4.94 z M46.290833333333325 20 l-1.94 0 l-4.18 -9.88 l3.06 0 l2.08 5.64 c0.68 -1.72 1.44 -3.98 2.08 -5.64 l3.04 0 z M53.97854166666666 10.12 l0 9.88 l-2.96 0 l0 -9.88 l2.96 0 z M54.058541666666656 7.279999999999999 c0 0.84 -0.68 1.5 -1.58 1.5 c-0.86 0 -1.56 -0.66 -1.56 -1.5 c0 -0.82 0.7 -1.46 1.56 -1.46 c0.9 0 1.58 0.64 1.58 1.46 z M58.12624999999999 13.24 c0 1.18 5 0.62 5 3.74 c0 2.04 -1.8 3.18 -4.04 3.18 c-1.42 0 -2.84 -0.7 -3.96 -1.82 l1.94 -1.94 c0.56 0.68 1.36 1.2 2.02 1.26 s1.22 -0.22 1.32 -0.52 c0.24 -0.76 -1.14 -0.8 -1.56 -0.92 c-1.58 -0.48 -3.42 -1.14 -3.42 -3.1 c0 -2.34 2.44 -3.14 3.66 -3.14 c1.4 0 2.82 0.64 3.96 1.8 l-1.92 1.92 c-0.52 -0.68 -1.42 -1.22 -2.04 -1.22 c-0.32 0 -0.96 0.12 -0.96 0.76 z M67.27395833333333 10.12 l0 9.88 l-2.96 0 l0 -9.88 l2.96 0 z M67.35395833333332 7.279999999999999 c0 0.84 -0.68 1.5 -1.58 1.5 c-0.86 0 -1.56 -0.66 -1.56 -1.5 c0 -0.82 0.7 -1.46 1.56 -1.46 c0.9 0 1.58 0.64 1.58 1.46 z M72.42166666666667 15.8 c0 0.72 -0.02 1.92 1.08 1.92 c0.54 0 0.88 -0.22 1.26 -0.5 l0 2.44 c-0.46 0.26 -1.02 0.5 -1.62 0.5 c-2.54 0 -3.68 -1.08 -3.68 -4.36 l0 -3.24 l-1.1 0 l0 -2.44 l1.1 0 l0 -2.84 l2.96 0 l0 2.84 l2.34 0 l0 2.44 l-2.34 0 l0 3.24 z M86.429375 15.08 l0 0.66 l-7.04 0 c0 1.16 1.18 1.98 2.16 1.98 c0.96 0 1.84 -0.38 2.3 -1.22 l1.98 1.82 c-0.8 1.08 -2.02 1.84 -4.28 1.84 c-3.24 0 -5.22 -2.16 -5.22 -5.08 s1.92 -5.1 5.04 -5.1 s5.06 2.14 5.06 5.1 z M79.449375 13.86 l3.88 0 c-0.16 -0.94 -0.84 -1.44 -1.96 -1.44 c-1.08 0 -1.74 0.58 -1.92 1.44 z" />
   </g>
</svg>