<svg width="338.1413081609671" height="58.48772873110176" viewBox="0 0 338.1413081609671 58.48772873110176" class="css-1j8o68f" xmlns="http://www.w3.org/2000/svg" version="1.0">
<defs id="SvgjsDefs1224"></defs>
<g id="SvgjsG1225" featurekey="Df7oLJ-0" transform="matrix(0.7372526621177051,0,0,0.7372526621177051,-3.686024608502278,-7.618768740334376)" fill="#3fc1c9">
    <g xmlns="http://www.w3.org/2000/svg">
    <path d="M31.01,47.631l9.461-18.59c0.445-0.875,1.384-1.388,2.358-1.282c0.976,0.103,1.787,0.795,2.041,1.743l6.764,25.243   l6.049-14.938c0.369-0.909,1.26-1.506,2.24-1.479c0.98,0.018,1.848,0.638,2.183,1.56l2.811,7.744h26.828   C93.865,43.914,95,39.695,95,35.299c0-6.668-2.597-12.938-7.312-17.653c-4.715-4.715-10.984-7.312-17.653-7.312   c-6.668,0-12.938,2.597-17.654,7.312l-2.389,2.39l-2.39-2.39c-4.715-4.715-10.984-7.312-17.653-7.312l0,0   c-6.668,0-12.938,2.597-17.654,7.312c-8.111,8.112-9.456,20.461-4.048,29.985H31.01z"></path>
    <path d="M63.257,52.369c-0.996,0-1.887-0.624-2.227-1.561l-1.271-3.503l-6.387,15.771c-0.364,0.898-1.235,1.479-2.195,1.479   c-0.048,0-0.098-0.001-0.146-0.004c-1.016-0.062-1.879-0.768-2.143-1.751l-6.995-26.106l-7.319,14.381   c-0.404,0.794-1.22,1.294-2.111,1.294h-20.72c0.183,0.195,0.363,0.392,0.554,0.583l36.021,36.02   c0.462,0.463,1.068,0.694,1.675,0.694c0.606,0,1.212-0.231,1.675-0.694l36.02-36.02c0.191-0.191,0.372-0.388,0.556-0.583H63.257z"></path></g></g><g id="SvgjsG1226" featurekey="Ua4uQk-0" transform="matrix(2.5319058331470488,0,0,2.5319058331470488,82.96171287949286,-7.836968520287606)" fill="#eeeeee"><path d="M4.42 17.04 l5.74 0 l0 2.96 l-6.14 0 l-2.82 0 l0 -14 l3.22 0 l5.56 0 l0 2.96 l-5.56 0 l0 2.54 l4.16 0 l0 2.9 l-4.16 0 l0 2.64 z M19.560000000000002 9.6 l3.16 0 l0 10.4 l-3.16 0 l0 -1.04 c-0.14 0.36 -1.08 1.24 -2.68 1.24 c-2.38 0 -5.12 -1.7 -5.12 -5.42 c0 -3.58 2.74 -5.36 5.12 -5.36 c1.6 0 2.54 0.92 2.68 1.14 l0 -0.96 z M17.34 17.42 c1.3 0 2.36 -0.9 2.36 -2.64 c0 -1.68 -1.06 -2.58 -2.36 -2.58 c-1.36 0 -2.52 0.92 -2.52 2.58 c0 1.72 1.16 2.64 2.52 2.64 z M29.700000000000003 12.879999999999999 c-0.28 -0.72 -0.7 -0.96 -1.16 -0.96 c-0.42 0 -0.84 0.24 -0.84 0.64 c0 0.38 0.24 0.6 0.7 0.76 l1.32 0.46 c1.48 0.54 2.98 1.08 2.98 3.16 c0 2.1 -2.1 3.3 -4.26 3.3 c-1.94 0 -3.76 -1.14 -4.2 -2.96 l2.48 -0.78 c0.26 0.58 0.72 1.24 1.72 1.24 c0.68 0 1.12 -0.44 1.12 -0.84 c0 -0.2 -0.16 -0.46 -0.66 -0.66 l-1.22 -0.44 c-2.08 -0.76 -3.06 -1.82 -3.06 -3.3 c0 -1.94 1.8 -3.08 3.78 -3.08 c2.02 0 3.36 1.1 3.96 2.76 z M41.78000000000001 9.56 l3.14 0 l-6.36 14.24 l-3.16 0 l1.92 -4.16 l-4.5 -10.08 l3.14 0 l2.92 6.68 z M57.78000000000001 6 l3.42 0 l-6.22 14 l-2.94 0 l-6.22 -14 l3.42 0 l4.28 10.1 z M65.60000000000001 5.859999999999999 l0 2.66 l-3.16 0 l0 -2.66 l3.16 0 z M65.60000000000001 9.6 l0 10.4 l-3.16 0 l0 -10.4 l3.16 0 z M72.58 12.879999999999999 c-0.28 -0.72 -0.7 -0.96 -1.16 -0.96 c-0.42 0 -0.84 0.24 -0.84 0.64 c0 0.38 0.24 0.6 0.7 0.76 l1.32 0.46 c1.48 0.54 2.98 1.08 2.98 3.16 c0 2.1 -2.1 3.3 -4.26 3.3 c-1.94 0 -3.76 -1.14 -4.2 -2.96 l2.48 -0.78 c0.26 0.58 0.72 1.24 1.72 1.24 c0.68 0 1.12 -0.44 1.12 -0.84 c0 -0.2 -0.16 -0.46 -0.66 -0.66 l-1.22 -0.44 c-2.08 -0.76 -3.06 -1.82 -3.06 -3.3 c0 -1.94 1.8 -3.08 3.78 -3.08 c2.02 0 3.36 1.1 3.96 2.76 z M80.36000000000001 5.859999999999999 l0 2.66 l-3.16 0 l0 -2.66 l3.16 0 z M80.36000000000001 9.6 l0 10.4 l-3.16 0 l0 -10.4 l3.16 0 z M87.46000000000001 17.36 c0.56 0 0.96 -0.08 1.4 -0.2 l0 2.62 c-0.44 0.2 -1.16 0.34 -2.22 0.34 c-1.74 0 -3.2 -0.58 -3.2 -3.78 l0 -4.14 l-1.46 0 l0 -2.6 l1.46 0 l0 -2.44 l3.16 0 l0 2.44 l2.22 0 l0 2.6 l-2.22 0 l0 4.14 c0 0.46 0.12 1.02 0.86 1.02 z M95.70000000000002 9.42 c2.36 0 5.66 1.78 5 6.48 l-7.26 0 c0.36 1.08 1.3 1.64 2.56 1.64 c1.28 0 1.68 -0.28 2.4 -0.58 l1.74 1.68 c-0.92 0.9 -2.16 1.56 -4.26 1.56 c-2.58 0 -5.66 -1.78 -5.66 -5.36 c0 -3.64 3.12 -5.42 5.48 -5.42 z M95.70000000000002 12.120000000000001 c-0.9 0 -1.82 0.52 -2.22 1.56 l4.42 0 c-0.32 -1.04 -1.3 -1.56 -2.2 -1.56 z"></path>
</g>
</svg>