<svg width="586.8" height="75.2" viewBox="0 0 586.8 75.2" xmlns="http://www.w3.org/2000/svg"><g id="svgGroup" stroke-linecap="round" fill-rule="evenodd" font-size="9pt" stroke="#3fc1c9" stroke-width="0.25mm" fill="#3fc1c9" style="stroke:#3fc1c9;stroke-width:0.25mm;fill:#3fc1c9"><path d="M 309.3 33.5 L 308.8 14.6 A 33.043 33.043 0 0 0 308.702 11.973 Q 308.488 9.288 307.8 7.5 Q 306.8 4.9 306.8 4.7 A 1.704 1.704 0 0 1 307.451 3.43 Q 308.637 2.361 311.987 1.612 A 36.242 36.242 0 0 1 313.55 1.3 Q 319.089 0.315 322.473 0.139 A 26.521 26.521 0 0 1 323.85 0.1 A 11.222 11.222 0 0 1 325.113 0.165 Q 326.373 0.308 327.026 0.77 A 1.56 1.56 0 0 1 327.7 1.8 Q 333.895 29.433 338.157 40.433 A 63.917 63.917 0 0 0 338.3 40.8 A 5.106 5.106 0 0 0 338.505 41.238 Q 338.893 41.965 339.31 41.999 A 0.503 0.503 0 0 0 339.35 42 A 0.709 0.709 0 0 0 339.81 41.822 Q 340.078 41.599 340.3 41.1 Q 347 22.2 352.1 3.7 Q 352.5 2.5 354.1 1.85 Q 355.7 1.2 359.65 0.6 Q 363.6 0 367.5 0 A 14.528 14.528 0 0 1 368.725 0.047 Q 371.4 0.275 371.4 1.6 A 0.402 0.402 0 0 1 371.395 1.646 Q 371.363 1.881 371.1 3.15 Q 370.8 4.6 370.5 6.7 A 400.283 400.283 0 0 0 370.261 8.402 Q 370.05 9.925 369.8 11.8 A 127.292 127.292 0 0 0 369.137 18.23 Q 368.877 21.519 368.733 25.173 A 216.098 216.098 0 0 0 368.65 27.65 Q 368.4 36.6 368.4 45.6 L 368.6 56.1 Q 368.6 63.3 369.55 66.35 Q 370.5 69.4 370.5 69.85 Q 370.5 70.3 369.8 70.9 Q 367.574 72.695 363.699 73.201 A 25.538 25.538 0 0 1 360.4 73.4 A 8.895 8.895 0 0 1 358.843 73.275 Q 358.046 73.133 357.46 72.828 A 2.864 2.864 0 0 1 355.9 70.7 A 9.393 9.393 0 0 1 355.769 69.897 Q 355.6 68.538 355.6 66.25 A 81.46 81.46 0 0 1 355.621 64.662 Q 355.713 60.256 356.2 47.5 Q 356.778 32.387 356.799 25.196 A 182.055 182.055 0 0 0 356.8 24.65 Q 356.8 17.5 356 17.5 A 0.3 0.3 0 0 0 355.967 17.502 Q 355.933 17.506 355.917 17.518 A 0.038 0.038 0 0 0 355.9 17.55 A 0.036 0.036 0 0 1 355.886 17.574 Q 355.842 17.615 355.659 17.68 A 3.624 3.624 0 0 1 355.6 17.7 Q 355.346 17.785 354.411 19.949 A 70.761 70.761 0 0 0 354.05 20.8 Q 352.88 23.607 349.565 34.12 A 964.074 964.074 0 0 0 349.1 35.6 Q 345.4 47.4 342.4 57.65 A 3019.128 3019.128 0 0 1 341.692 60.065 Q 339.513 67.489 339.142 68.58 A 4.221 4.221 0 0 1 339.1 68.7 A 4.534 4.534 0 0 1 338.093 70.251 Q 336.922 71.4 334.9 71.4 A 3.299 3.299 0 0 1 333.741 71.204 A 2.891 2.891 0 0 1 332.5 70.3 A 284.99 284.99 0 0 0 330.588 62.106 Q 327.25 48.625 321.1 28 L 318.3 18.9 Q 318.13 18.475 317.96 18.411 A 0.17 0.17 0 0 0 317.9 18.4 Q 317.464 18.4 317.256 18.933 A 1.885 1.885 0 0 0 317.2 19.1 Q 316.8 25.6 316.8 44.65 A 417.622 417.622 0 0 0 316.849 51.3 Q 317.013 61.56 317.724 66.332 A 19.883 19.883 0 0 0 318.2 68.7 A 0.746 0.746 0 0 1 318.253 68.845 Q 318.3 69.025 318.3 69.3 A 2.429 2.429 0 0 1 317.341 71.23 Q 316.521 71.912 315 72.35 Q 312.05 73.199 309.62 73.289 A 15.378 15.378 0 0 1 309.05 73.3 A 8.836 8.836 0 0 1 308.183 73.261 Q 307.332 73.177 306.887 72.909 A 0.904 0.904 0 0 1 306.4 72.1 A 0.259 0.259 0 0 1 306.408 72.053 Q 306.455 71.847 306.782 70.857 A 131.441 131.441 0 0 1 306.9 70.5 A 34.361 34.361 0 0 0 307.717 66.965 Q 308.537 62.445 308.85 55.7 Q 309.237 47.364 309.291 36.96 A 662.12 662.12 0 0 0 309.3 33.5 Z M 37.9 41.1 L 37.8 29.2 A 414.618 414.618 0 0 0 37.743 22.026 Q 37.574 12.305 36.907 7.518 A 28.366 28.366 0 0 0 36.6 5.7 A 7.849 7.849 0 0 1 36.503 5.33 Q 36.419 4.97 36.404 4.712 A 1.854 1.854 0 0 1 36.4 4.6 A 1.862 1.862 0 0 1 36.914 3.354 Q 37.722 2.434 39.8 1.7 Q 43.2 0.5 45.2 0.5 A 4.984 4.984 0 0 1 45.88 0.542 Q 47.2 0.725 47.2 1.7 A 0.57 0.57 0 0 1 47.194 1.765 Q 47.164 1.979 47.001 2.797 A 52.876 52.876 0 0 1 47 2.8 Q 45.253 12.145 44.833 29.86 A 510.028 510.028 0 0 0 44.7 41.9 Q 44.7 60.2 46.8 68.2 Q 47.169 69.398 47.198 69.577 A 0.158 0.158 0 0 1 47.2 69.6 A 2.104 2.104 0 0 1 46.557 71.066 Q 45.482 72.202 42.614 73.046 A 21.706 21.706 0 0 1 42.6 73.05 Q 38.119 74.365 36.2 74.399 A 5.648 5.648 0 0 1 36.1 74.4 Q 33.419 74.4 32.256 73.282 A 2.729 2.729 0 0 1 32 73 A 13.169 13.169 0 0 1 30.95 71.367 Q 29.296 68.428 26.669 61.897 A 289.505 289.505 0 0 1 24.85 57.25 Q 19.9 44.3 16.2 33.1 L 12.4 21.9 A 1.594 1.594 0 0 0 12.308 21.705 Q 12.189 21.496 12.042 21.43 A 0.343 0.343 0 0 0 11.9 21.4 Q 11.5 21.4 11 22.1 Q 10.5 31.4 10.5 40.7 Q 10.5 47.82 10.588 52.42 A 238.744 238.744 0 0 0 10.65 55 Q 10.765 58.828 10.909 61.25 A 78.772 78.772 0 0 0 11 62.6 Q 11.2 65.2 11.4 66.75 Q 11.6 68.3 11.75 69 Q 11.899 69.694 11.9 69.995 A 1.225 1.225 0 0 1 11.9 70 A 2.165 2.165 0 0 1 11.187 71.583 Q 10.366 72.388 8.6 72.95 A 25.122 25.122 0 0 1 5.931 73.649 Q 4.565 73.923 3.331 73.983 A 14.022 14.022 0 0 1 2.65 74 A 8.836 8.836 0 0 1 1.783 73.961 Q 0.932 73.877 0.487 73.609 A 0.904 0.904 0 0 1 0 72.8 A 3.101 3.101 0 0 1 0.035 72.352 Q 0.103 71.891 0.3 71.3 Q 0.6 70.4 1 69 A 20.401 20.401 0 0 0 1.462 66.893 Q 2.1 63.19 2.4 56.25 A 399.699 399.699 0 0 0 2.673 47.659 Q 2.8 41.816 2.8 35.15 Q 2.8 23.743 2.522 18.313 A 95.062 95.062 0 0 0 2.5 17.9 A 108.426 108.426 0 0 0 2.222 14.094 Q 1.734 8.812 0.843 6.453 A 7.978 7.978 0 0 0 0.7 6.1 A 1.004 1.004 0 0 1 0.421 5.552 A 1.432 1.432 0 0 1 0.4 5.3 A 1.308 1.308 0 0 1 0.819 4.408 Q 1.677 3.503 4.292 2.631 A 32.115 32.115 0 0 1 5.7 2.2 A 61.09 61.09 0 0 1 8.495 1.475 Q 11.211 0.844 13.121 0.727 A 13.568 13.568 0 0 1 13.95 0.7 A 136.239 136.239 0 0 1 14.97 0.704 Q 16.721 0.717 17.261 0.779 A 1.767 1.767 0 0 1 17.4 0.8 A 2.136 2.136 0 0 1 17.552 0.795 Q 18.817 0.795 19.1 2.4 A 228.381 228.381 0 0 0 21.605 10.795 Q 23.083 15.439 24.918 20.647 A 449.682 449.682 0 0 0 27.25 27.1 A 310.408 310.408 0 0 0 29.803 33.781 Q 32.653 40.973 35.123 45.956 A 80.295 80.295 0 0 0 36.6 48.8 A 3.714 3.714 0 0 0 36.809 48.995 Q 37.166 49.3 37.4 49.3 Q 37.835 49.3 37.892 43.096 A 219.521 219.521 0 0 0 37.9 41.1 Z M 438 28.4 L 438.6 27.9 L 438.2 17 Q 438 14.2 437 12.2 Q 436.231 10.663 435.581 9.953 A 2.819 2.819 0 0 0 435.2 9.6 L 434.3 9.1 Q 433.7 8.7 433.7 8.2 Q 433.7 6.915 437.111 5.264 A 30.546 30.546 0 0 1 438.35 4.7 Q 442.164 3.06 444.599 2.765 A 8.35 8.35 0 0 1 445.6 2.7 A 9.38 9.38 0 0 1 446.491 2.739 Q 448.238 2.906 448.4 3.8 Q 448.81 6.59 448.884 13.521 A 304.884 304.884 0 0 1 448.9 16.75 Q 448.9 26.3 448.45 35.5 Q 448.03 44.089 448.002 54.814 A 590.659 590.659 0 0 0 448 56.35 Q 448 65.889 449.006 69.629 A 7.41 7.41 0 0 0 449.5 71 Q 449.822 71.563 449.885 72.061 A 1.903 1.903 0 0 1 449.9 72.3 A 1.02 1.02 0 0 1 449.345 73.184 Q 448.508 73.705 446.411 73.785 A 21.163 21.163 0 0 1 445.6 73.8 Q 440.829 73.8 438.834 72.48 A 2.946 2.946 0 0 1 437.4 69.9 Q 437.247 68.68 437.211 66.441 A 92.532 92.532 0 0 1 437.2 64.95 A 59.708 59.708 0 0 1 437.236 63.061 Q 437.352 59.456 437.85 52.45 Q 438.386 44.908 438.48 40.22 A 93.454 93.454 0 0 0 438.5 38.35 Q 438.5 33.4 433.55 33.4 A 7.191 7.191 0 0 0 427.674 36.364 Q 426.8 37.472 426.093 38.995 A 17.565 17.565 0 0 0 426 39.2 A 29.638 29.638 0 0 0 423.721 46.722 A 26.158 26.158 0 0 0 423.4 50.8 A 36.642 36.642 0 0 0 423.609 54.902 Q 424.538 63.1 429.6 63.1 Q 430.5 63.1 431.35 62.75 A 17.544 17.544 0 0 1 431.646 62.631 Q 432.225 62.405 432.393 62.4 A 0.249 0.249 0 0 1 432.4 62.4 Q 433.129 62.4 433.567 63.23 A 3.002 3.002 0 0 1 433.65 63.4 A 5.096 5.096 0 0 1 434.044 64.697 A 4.493 4.493 0 0 1 434.1 65.4 A 7.251 7.251 0 0 1 431.805 70.777 A 9.571 9.571 0 0 1 431.4 71.15 A 9.512 9.512 0 0 1 425.639 73.472 A 12.326 12.326 0 0 1 424.8 73.5 Q 419.371 73.5 416.358 69.202 A 13.252 13.252 0 0 1 415.75 68.25 A 21.45 21.45 0 0 1 413.393 62.055 Q 412.7 58.917 412.7 55.2 Q 412.7 45.3 417.4 36.8 Q 419.8 32.6 423.9 30.05 A 17.015 17.015 0 0 1 432.235 27.523 A 20.602 20.602 0 0 1 433.2 27.5 A 12.408 12.408 0 0 1 434.989 27.623 A 9.589 9.589 0 0 1 436.45 27.95 A 129.683 129.683 0 0 0 436.791 28.056 Q 437.811 28.369 437.976 28.397 A 0.158 0.158 0 0 0 438 28.4 Z M 242.9 42.4 L 242.7 55.2 Q 242.7 66.218 244.69 69.961 A 4.67 4.67 0 0 0 245.6 71.2 A 1.474 1.474 0 0 1 245.859 71.542 A 1.16 1.16 0 0 1 246 72.1 A 0.851 0.851 0 0 1 245.507 72.815 Q 244.311 73.543 240.209 73.596 A 51.214 51.214 0 0 1 239.55 73.6 A 16.398 16.398 0 0 1 237.22 73.449 Q 234.623 73.074 233.509 71.767 A 3.522 3.522 0 0 1 232.7 69.8 A 9.722 9.722 0 0 1 232.661 69.315 Q 232.6 68.288 232.6 66.1 L 233 50.1 Q 233 49.4 232.2 49.4 Q 227.4 49.4 223.2 52.1 A 11.073 11.073 0 0 0 220.985 53.934 A 7.289 7.289 0 0 0 219 59 A 6.683 6.683 0 0 0 219.23 60.791 A 5.28 5.28 0 0 0 220.2 62.7 Q 221.4 64.2 223.15 64.2 A 7.244 7.244 0 0 0 224.378 64.102 Q 225.092 63.979 225.674 63.702 A 4.108 4.108 0 0 0 226.05 63.5 A 152.561 152.561 0 0 1 226.448 63.259 Q 227.131 62.846 227.345 62.729 A 1.827 1.827 0 0 1 227.4 62.7 Q 228.902 62.877 229.077 65.512 A 11.16 11.16 0 0 1 229.1 66.25 A 5.974 5.974 0 0 1 226.974 70.907 A 8.726 8.726 0 0 1 226 71.65 A 12.478 12.478 0 0 1 222.443 73.301 A 10.977 10.977 0 0 1 219.5 73.7 Q 216.22 73.7 213.825 72.584 A 10.017 10.017 0 0 1 213.65 72.5 A 14.058 14.058 0 0 1 212.141 71.65 Q 211.406 71.17 210.856 70.649 A 6.305 6.305 0 0 1 210.1 69.8 A 13.412 13.412 0 0 1 208.577 67.099 A 15.461 15.461 0 0 1 208.3 66.4 A 19.396 19.396 0 0 1 207.873 64.759 Q 207.6 63.463 207.6 62.4 A 18.021 18.021 0 0 1 208.258 57.405 A 13.631 13.631 0 0 1 212 51.2 A 23.21 23.21 0 0 1 218.852 46.721 A 30.399 30.399 0 0 1 223.3 45.2 A 96.123 96.123 0 0 0 226.171 44.59 Q 232.469 43.142 232.8 41.9 A 5.796 5.796 0 0 0 232.931 41.256 Q 233.045 40.513 233.082 39.389 A 36.097 36.097 0 0 0 233.1 38.2 Q 233.1 33.992 229.695 33.125 A 8.105 8.105 0 0 0 227.7 32.9 Q 225.4 32.9 223.6 34.35 A 5.025 5.025 0 0 0 222.402 35.707 A 4.432 4.432 0 0 0 221.8 38 L 222.4 40.4 A 1.686 1.686 0 0 1 221.587 41.637 Q 220.686 42.234 218.8 42.4 L 217.7 42.5 A 9.738 9.738 0 0 1 215.785 42.323 Q 214.098 41.984 212.95 41 A 4.916 4.916 0 0 1 211.213 37.422 A 6.791 6.791 0 0 1 211.2 37 A 5.787 5.787 0 0 1 211.401 35.533 Q 211.575 34.871 211.898 34.158 A 11.691 11.691 0 0 1 212.25 33.45 A 10.117 10.117 0 0 1 213.734 31.352 A 8.752 8.752 0 0 1 214.9 30.3 A 8.559 8.559 0 0 1 216.071 29.575 Q 217.339 28.912 219.219 28.336 A 31.556 31.556 0 0 1 219.85 28.15 A 25.255 25.255 0 0 1 223.94 27.334 A 21.28 21.28 0 0 1 226.3 27.2 Q 228.855 27.2 230.459 27.336 A 19.819 19.819 0 0 1 231.1 27.4 A 20.425 20.425 0 0 1 232.268 27.576 Q 233.508 27.796 235.188 28.209 A 77.138 77.138 0 0 1 235.75 28.35 A 10.173 10.173 0 0 1 239.227 29.942 A 9.577 9.577 0 0 1 240.65 31.2 A 9.024 9.024 0 0 1 241.899 32.879 A 6.389 6.389 0 0 1 242.75 35.65 Q 242.865 37.449 242.892 40.45 A 217.947 217.947 0 0 1 242.9 42.4 Z M 88.5 28.1 L 89.5 28.4 A 4.707 4.707 0 0 1 89.938 28.607 Q 90.7 29.022 90.7 29.5 A 0.68 0.68 0 0 1 90.485 29.993 Q 90.312 30.167 90 30.3 A 17.577 17.577 0 0 0 85.586 32.326 A 20.272 20.272 0 0 0 84.8 32.85 A 25.141 25.141 0 0 0 83.95 33.469 Q 82.3 34.731 82.3 35.3 L 82.9 36 A 11.028 11.028 0 0 1 86.743 39.66 A 14.781 14.781 0 0 1 87.85 41.7 A 28.882 28.882 0 0 1 88.926 44.443 Q 89.387 45.837 89.612 47.094 A 13.765 13.765 0 0 1 89.8 48.6 L 90 51.7 A 29.228 29.228 0 0 1 89.092 59.166 A 21.932 21.932 0 0 1 84.5 68 Q 79 74.4 69.5 74.4 A 22.823 22.823 0 0 1 65.549 74.075 Q 63.187 73.66 61.231 72.715 A 14.507 14.507 0 0 1 61.2 72.7 A 20.513 20.513 0 0 1 59.012 71.478 Q 57.926 70.775 57.105 70.006 A 9.584 9.584 0 0 1 56.05 68.85 A 18.294 18.294 0 0 1 53.528 64.335 A 20.52 20.52 0 0 1 53.4 64 Q 52.2 60.3 52.2 56.35 A 24.487 24.487 0 0 1 53.309 49.15 A 27.781 27.781 0 0 1 53.55 48.4 A 27.438 27.438 0 0 1 54.433 46.105 Q 55.447 43.806 56.65 42.5 Q 58.4 40.6 60.6 39.4 A 20.03 20.03 0 0 1 62.069 38.683 Q 63.872 37.9 65.1 37.9 A 6.31 6.31 0 0 1 65.634 37.921 Q 66.512 37.996 66.729 38.343 A 0.475 0.475 0 0 1 66.8 38.6 L 66.2 39.6 A 13.334 13.334 0 0 0 64.215 42.814 Q 63.585 44.229 63.166 45.913 A 22.979 22.979 0 0 0 63.05 46.4 A 43.629 43.629 0 0 0 62.418 49.775 Q 62.179 51.422 62.12 52.891 A 23.691 23.691 0 0 0 62.1 53.85 Q 62.1 57.1 62.9 60.3 A 29.472 29.472 0 0 0 63.393 62.055 Q 63.911 63.689 64.502 64.723 A 7.103 7.103 0 0 0 64.7 65.05 Q 65.7 66.6 67 67.4 A 7.693 7.693 0 0 0 69.513 68.444 A 7.113 7.113 0 0 0 71 68.6 A 5.671 5.671 0 0 0 73.586 67.956 A 8.231 8.231 0 0 0 75.1 66.95 A 9.07 9.07 0 0 0 77.692 63.418 A 11.187 11.187 0 0 0 78 62.6 Q 79.8 57.6 79.8 52.3 A 26.693 26.693 0 0 0 79.342 47.197 Q 78.405 42.391 75.55 39.3 A 13.535 13.535 0 0 0 69.282 35.519 Q 67.11 34.879 64.497 34.739 A 28.005 28.005 0 0 0 63 34.7 Q 60.4 34.8 59.25 34.85 A 4.103 4.103 0 0 1 59.142 34.853 Q 58.461 34.865 58.225 34.625 A 0.444 0.444 0 0 1 58.1 34.3 Q 58.1 33.7 58.7 33.1 Q 65.1 27.2 80.3 27.2 Q 85.322 27.2 88.292 28.04 A 13.534 13.534 0 0 1 88.5 28.1 Z M 562.6 66.3 L 562.8 68.5 A 3.881 3.881 0 0 1 561.41 71.48 Q 560.817 72.014 559.971 72.461 A 10.711 10.711 0 0 1 559.15 72.85 A 24.803 24.803 0 0 1 556.76 73.732 Q 554.59 74.4 552.85 74.4 Q 550.2 74.4 550.2 73.1 A 119.614 119.614 0 0 0 551.365 63.615 Q 551.762 58.959 551.911 53.711 A 230.021 230.021 0 0 0 552 47.2 Q 552 32.1 551.1 27.6 A 0.975 0.975 0 0 1 551.654 26.723 Q 552.389 26.3 554.1 26.3 A 9.313 9.313 0 0 1 556.325 26.547 Q 557.972 26.952 559.029 28.023 A 5.682 5.682 0 0 1 560.2 29.8 A 0.402 0.402 0 0 0 560.477 30.07 Q 560.555 30.094 560.654 30.099 A 0.998 0.998 0 0 0 560.7 30.1 A 1.275 1.275 0 0 0 560.925 30.082 Q 561.161 30.039 561.3 29.9 A 9.542 9.542 0 0 1 565.064 27.564 Q 566.596 27.026 568.485 26.823 A 22.642 22.642 0 0 1 570.9 26.7 Q 576.28 26.7 579.811 28.961 A 11.921 11.921 0 0 1 581.2 30 Q 584.959 33.265 585 39.465 A 20.735 20.735 0 0 1 585 39.6 Q 585 42.509 584.619 47.295 A 237.908 237.908 0 0 1 584.35 50.4 Q 583.712 57.273 583.7 60.676 A 36.601 36.601 0 0 0 583.7 60.8 Q 583.7 68.9 586.4 72.5 A 2.142 2.142 0 0 1 586.636 72.859 Q 586.762 73.105 586.791 73.35 A 1.258 1.258 0 0 1 586.8 73.5 A 1.007 1.007 0 0 1 586.205 74.422 Q 585.703 74.695 584.777 74.771 A 9.555 9.555 0 0 1 584 74.8 A 20.352 20.352 0 0 1 579.321 74.311 Q 573 72.812 571.854 66.722 A 15.813 15.813 0 0 1 571.6 63.8 A 26.155 26.155 0 0 1 571.776 60.934 Q 572.12 57.847 573.131 53.599 A 107.837 107.837 0 0 1 573.5 52.1 A 102.462 102.462 0 0 0 574.331 48.575 Q 575.4 43.625 575.4 40.7 Q 575.4 33.576 570.166 32.796 A 9.272 9.272 0 0 0 568.8 32.7 Q 565.6 32.7 563.95 34.6 Q 562.3 36.5 562.1 38.95 A 38.056 38.056 0 0 0 562.017 40.337 Q 561.9 42.994 561.9 48.2 A 265.971 265.971 0 0 0 561.998 55.62 Q 562.101 59.287 562.31 62.542 A 142.744 142.744 0 0 0 562.6 66.3 Z M 129.8 71.6 L 130.2 72.9 A 1.076 1.076 0 0 1 129.551 73.929 Q 129.005 74.2 128 74.2 Q 122.325 74.2 120.235 71.864 A 4.611 4.611 0 0 1 119.2 69.9 A 1.136 1.136 0 0 0 119.144 69.706 Q 119.106 69.608 119.051 69.541 A 0.371 0.371 0 0 0 118.75 69.4 Q 118.457 69.4 118.199 69.681 A 1.551 1.551 0 0 0 118.1 69.8 A 9.901 9.901 0 0 1 112.421 73.453 Q 110.756 73.872 108.767 73.898 A 20.281 20.281 0 0 1 108.5 73.9 A 16.055 16.055 0 0 1 104.119 73.266 A 21.267 21.267 0 0 1 101 72.1 Q 98.6 71 97.1 68.25 A 11.714 11.714 0 0 1 95.941 65.029 Q 95.6 63.406 95.6 61.5 L 97.1 39.6 Q 97.1 34.239 96.255 31.293 A 9.411 9.411 0 0 0 95.7 29.8 A 18.74 18.74 0 0 1 95.53 29.416 Q 95.2 28.644 95.2 28.4 A 1.102 1.102 0 0 1 95.24 28.094 A 0.733 0.733 0 0 1 95.7 27.6 Q 96.863 27.237 98.5 27.137 A 21.505 21.505 0 0 1 99.8 27.1 A 17.179 17.179 0 0 1 103.401 27.443 Q 108.658 28.575 109.384 33.444 A 11.235 11.235 0 0 1 109.5 35.1 Q 109.5 37.13 108.149 43.378 A 239.606 239.606 0 0 1 107.45 46.5 Q 105.434 55.252 105.401 59.024 A 14.196 14.196 0 0 0 105.4 59.15 Q 105.4 61.682 106.152 63.416 A 6.179 6.179 0 0 0 107.05 64.9 A 5.387 5.387 0 0 0 110.674 66.841 A 7.798 7.798 0 0 0 111.65 66.9 A 6.654 6.654 0 0 0 113.764 66.58 A 5.416 5.416 0 0 0 116.3 64.8 A 11.103 11.103 0 0 0 117.432 63.127 Q 118.12 61.863 118.3 60.6 L 118.6 58.5 Q 118.968 55.277 118.998 47.559 A 360.135 360.135 0 0 0 119 46.2 A 227.154 227.154 0 0 0 118.981 43.127 Q 118.897 36.959 118.45 35.05 A 68.205 68.205 0 0 1 118.263 34.23 Q 117.989 32.992 117.922 32.41 A 2.807 2.807 0 0 1 117.9 32.1 Q 117.9 29.702 121.579 28.271 A 14.663 14.663 0 0 1 121.9 28.15 Q 125.288 26.922 128.102 26.734 A 14.979 14.979 0 0 1 129.1 26.7 A 2.752 2.752 0 0 1 129.648 26.75 Q 130.492 26.922 130.588 27.693 A 1.681 1.681 0 0 1 130.6 27.9 A 113.425 113.425 0 0 0 129.539 36.425 Q 128.8 44.702 128.8 55.4 A 239.365 239.365 0 0 0 128.848 60.379 Q 128.989 67.116 129.544 70.371 A 15.496 15.496 0 0 0 129.8 71.6 Z M 283.3 71.6 L 283.7 72.9 A 1.076 1.076 0 0 1 283.051 73.929 Q 282.505 74.2 281.5 74.2 Q 275.825 74.2 273.735 71.864 A 4.611 4.611 0 0 1 272.7 69.9 A 1.136 1.136 0 0 0 272.644 69.706 Q 272.606 69.608 272.551 69.541 A 0.371 0.371 0 0 0 272.25 69.4 Q 271.957 69.4 271.699 69.681 A 1.551 1.551 0 0 0 271.6 69.8 A 9.901 9.901 0 0 1 265.921 73.453 Q 264.256 73.872 262.267 73.898 A 20.281 20.281 0 0 1 262 73.9 A 16.055 16.055 0 0 1 257.619 73.266 A 21.267 21.267 0 0 1 254.5 72.1 Q 252.1 71 250.6 68.25 A 11.714 11.714 0 0 1 249.441 65.029 Q 249.1 63.406 249.1 61.5 L 250.6 39.6 Q 250.6 34.239 249.755 31.293 A 9.411 9.411 0 0 0 249.2 29.8 A 18.74 18.74 0 0 1 249.03 29.416 Q 248.7 28.644 248.7 28.4 A 1.102 1.102 0 0 1 248.74 28.094 A 0.733 0.733 0 0 1 249.2 27.6 Q 250.363 27.237 252 27.137 A 21.505 21.505 0 0 1 253.3 27.1 A 17.179 17.179 0 0 1 256.901 27.443 Q 262.158 28.575 262.884 33.444 A 11.235 11.235 0 0 1 263 35.1 Q 263 37.13 261.649 43.378 A 239.606 239.606 0 0 1 260.95 46.5 Q 258.934 55.252 258.901 59.024 A 14.196 14.196 0 0 0 258.9 59.15 Q 258.9 61.682 259.652 63.416 A 6.179 6.179 0 0 0 260.55 64.9 A 5.387 5.387 0 0 0 264.174 66.841 A 7.798 7.798 0 0 0 265.15 66.9 A 6.654 6.654 0 0 0 267.264 66.58 A 5.416 5.416 0 0 0 269.8 64.8 A 11.103 11.103 0 0 0 270.932 63.127 Q 271.62 61.863 271.8 60.6 L 272.1 58.5 Q 272.468 55.277 272.498 47.559 A 360.135 360.135 0 0 0 272.5 46.2 A 227.154 227.154 0 0 0 272.481 43.127 Q 272.397 36.959 271.95 35.05 A 68.205 68.205 0 0 1 271.763 34.23 Q 271.489 32.992 271.422 32.41 A 2.807 2.807 0 0 1 271.4 32.1 Q 271.4 29.702 275.079 28.271 A 14.663 14.663 0 0 1 275.4 28.15 Q 278.788 26.922 281.602 26.734 A 14.979 14.979 0 0 1 282.6 26.7 A 2.752 2.752 0 0 1 283.148 26.75 Q 283.992 26.922 284.088 27.693 A 1.681 1.681 0 0 1 284.1 27.9 A 113.425 113.425 0 0 0 283.039 36.425 Q 282.3 44.702 282.3 55.4 A 239.365 239.365 0 0 0 282.348 60.379 Q 282.489 67.116 283.044 70.371 A 15.496 15.496 0 0 0 283.3 71.6 Z M 141 58 L 140.1 53.9 Q 138.1 45.1 136.2 39.85 A 85.559 85.559 0 0 0 135.523 38.038 Q 134.131 34.45 133.4 33.8 L 132.4 32.9 Q 131.896 32.648 131.646 32.346 A 0.994 0.994 0 0 1 131.4 31.7 L 131.9 30.8 A 7.595 7.595 0 0 1 132.855 30.064 Q 134.129 29.219 136.25 28.35 Q 139.3 27.1 143 27.1 A 2.25 2.25 0 0 1 143.895 27.268 Q 144.819 27.664 145.1 29 A 64.3 64.3 0 0 1 146.336 33.331 Q 147.081 36.313 147.7 39.8 A 207.745 207.745 0 0 0 148.896 45.964 Q 149.667 49.656 150.65 53.8 A 86.75 86.75 0 0 0 151.267 56.254 Q 152.453 60.675 153.337 61.508 A 0.623 0.623 0 0 0 153.7 61.7 A 1.002 1.002 0 0 0 154.13 61.594 Q 154.558 61.391 155.05 60.8 Q 155.554 60.195 156.193 59.32 A 56.699 56.699 0 0 0 156.85 58.4 Q 157.9 56.9 159.45 52.6 A 33.197 33.197 0 0 0 160.332 49.792 Q 161 47.252 161 45.25 Q 161 42.736 160.83 41.173 A 14.969 14.969 0 0 0 160.75 40.55 A 6.188 6.188 0 0 0 160.409 39.293 Q 159.963 38.114 159.008 36.711 A 19.349 19.349 0 0 0 159 36.7 A 8.237 8.237 0 0 0 158.023 35.506 Q 157.397 34.881 156.712 34.53 A 4.043 4.043 0 0 0 155.6 34.15 Q 154.428 33.934 153.979 33.509 A 0.816 0.816 0 0 1 153.7 32.9 A 1.671 1.671 0 0 1 154.036 31.961 Q 154.754 30.916 157.003 29.691 A 26.831 26.831 0 0 1 157.95 29.2 A 20.724 20.724 0 0 1 162.649 27.517 A 17.299 17.299 0 0 1 166.4 27.1 A 3.301 3.301 0 0 1 169.449 29.076 Q 170.293 30.668 170.518 33.541 A 29.041 29.041 0 0 1 170.6 35.8 A 37.548 37.548 0 0 1 169.064 46.281 A 43.988 43.988 0 0 1 168.25 48.8 A 53.182 53.182 0 0 1 165.242 55.719 A 43.242 43.242 0 0 1 162.4 60.4 Q 156.173 69.481 150.993 73.326 A 20.122 20.122 0 0 1 149.4 74.4 A 11.784 11.784 0 0 1 148.753 74.745 Q 147.828 75.2 147.3 75.2 A 0.819 0.819 0 0 1 146.835 75.039 Q 146.374 74.722 145.893 73.784 A 8.675 8.675 0 0 1 145.85 73.7 A 11.734 11.734 0 0 1 145.484 72.872 Q 144.93 71.503 144.091 68.847 A 165.856 165.856 0 0 1 143.55 67.1 Q 142.218 62.717 141.292 59.147 A 135.422 135.422 0 0 1 141 58 Z M 520.163 69.63 A 11.598 11.598 0 0 0 523.9 60.9 Q 523.9 59.6 523.45 57.95 Q 523 56.3 522.1 56.3 Q 521.649 56.3 521.312 56.751 A 2.291 2.291 0 0 0 521.1 57.1 A 12.59 12.59 0 0 1 520.609 58.181 A 10.313 10.313 0 0 1 519 60.5 A 13.132 13.132 0 0 1 517.87 61.6 A 9.372 9.372 0 0 1 511.6 64 A 11.763 11.763 0 0 1 509.525 63.824 A 8.596 8.596 0 0 1 505.75 62.2 Q 503.4 60.4 502.55 57.55 Q 501.962 55.58 501.661 54.183 A 18.81 18.81 0 0 1 501.45 53.05 A 14.595 14.595 0 0 1 501.367 52.392 Q 501.2 50.805 501.2 48.15 A 23.531 23.531 0 0 1 501.334 45.664 A 28.226 28.226 0 0 1 502.15 41.35 Q 502.811 38.882 503.544 37.332 A 9.327 9.327 0 0 1 504.2 36.15 Q 505.3 34.5 506.95 33.45 Q 508.6 32.4 509.8 32.4 Q 514.6 32.4 514.6 36.3 A 6.715 6.715 0 0 1 514.596 36.544 Q 514.519 38.649 513.1 39.5 Q 511.5 40.2 511.4 41.3 A 5.637 5.637 0 0 0 511.445 42.026 A 3.931 3.931 0 0 0 512.8 44.6 A 12.899 12.899 0 0 0 513.332 45.034 Q 514.368 45.83 515.05 45.95 Q 515.9 46.1 517.25 46.1 A 4.337 4.337 0 0 0 517.849 46.058 Q 518.948 45.904 520.2 45.2 A 10.217 10.217 0 0 0 520.586 44.957 Q 522.804 43.488 523.661 41.202 A 9.062 9.062 0 0 0 524.2 38 Q 524.2 34.9 522.8 32.6 A 10.904 10.904 0 0 0 520.481 29.877 Q 518.433 28.16 515.489 27.468 A 19.182 19.182 0 0 0 511.1 27 A 23.222 23.222 0 0 0 507.484 27.272 A 17.774 17.774 0 0 0 501.5 29.3 Q 497.4 31.6 495.2 35.6 A 32.461 32.461 0 0 0 491.97 43.418 A 38.642 38.642 0 0 0 490.7 53.5 Q 490.7 63 495 68.55 Q 497.99 72.409 503.349 73.585 A 24.052 24.052 0 0 0 508.5 74.1 Q 514.8 74.1 519.35 70.35 A 14.999 14.999 0 0 0 520.163 69.63 Z M 205.036 63.758 A 15.743 15.743 0 0 0 205.4 60.3 A 2.254 2.254 0 0 0 205.387 60.064 Q 205.327 59.499 205 58.6 Q 204.784 58.007 204.496 57.734 A 0.777 0.777 0 0 0 203.95 57.5 Q 203.3 57.5 202.9 58.3 A 13.282 13.282 0 0 1 202.434 59.229 A 11.169 11.169 0 0 1 200.3 62 Q 197.3 64.8 193 64.8 A 10.927 10.927 0 0 1 190.835 64.597 A 7.102 7.102 0 0 1 186.5 62 Q 185.7 60.8 185.05 59.05 A 19.065 19.065 0 0 1 184.834 58.44 Q 184.4 57.136 184.4 56.4 A 1.002 1.002 0 0 1 184.415 56.222 Q 184.486 55.828 184.898 55.731 A 1.33 1.33 0 0 1 185.2 55.7 A 49.347 49.347 0 0 0 185.919 55.62 Q 191.269 54.988 195.3 53.3 A 39.969 39.969 0 0 0 195.478 53.225 Q 198.18 52.079 199.953 50.851 A 11.899 11.899 0 0 0 201.6 49.5 Q 203.6 47.5 204.8 45 A 34.707 34.707 0 0 0 205.309 43.893 Q 205.791 42.792 206.023 42.002 A 6.135 6.135 0 0 0 206.2 41.25 A 10.149 10.149 0 0 0 206.228 41.064 Q 206.342 40.255 206.38 39.106 A 37.706 37.706 0 0 0 206.4 37.85 Q 206.4 36.574 205.942 35.209 A 12.123 12.123 0 0 0 205.1 33.3 A 10.718 10.718 0 0 0 202.248 29.74 Q 200.25 28.136 197.388 27.471 A 19.851 19.851 0 0 0 192.9 27 A 22.79 22.79 0 0 0 189.643 27.225 A 15.955 15.955 0 0 0 178.05 34.6 A 29.858 29.858 0 0 0 174.938 40.866 A 32.699 32.699 0 0 0 173.1 51.95 Q 173.1 61.7 177.1 68 A 12.81 12.81 0 0 0 184.461 73.622 A 17.642 17.642 0 0 0 189.5 74.3 A 19.318 19.318 0 0 0 192.085 74.122 A 23.789 23.789 0 0 0 195.8 73.3 A 18.969 18.969 0 0 0 197.511 72.685 A 15.29 15.29 0 0 0 200.35 71.15 A 8.323 8.323 0 0 0 201.172 70.499 Q 201.939 69.81 202.638 68.868 A 16.229 16.229 0 0 0 203.85 66.95 A 12.28 12.28 0 0 0 205.036 63.758 Z M 407.336 63.758 A 15.743 15.743 0 0 0 407.7 60.3 A 2.254 2.254 0 0 0 407.687 60.064 Q 407.627 59.499 407.3 58.6 Q 407.084 58.007 406.796 57.734 A 0.777 0.777 0 0 0 406.25 57.5 Q 405.6 57.5 405.2 58.3 A 13.282 13.282 0 0 1 404.734 59.229 A 11.169 11.169 0 0 1 402.6 62 Q 399.6 64.8 395.3 64.8 A 10.927 10.927 0 0 1 393.135 64.597 A 7.102 7.102 0 0 1 388.8 62 Q 388 60.8 387.35 59.05 A 19.065 19.065 0 0 1 387.134 58.44 Q 386.7 57.136 386.7 56.4 A 1.002 1.002 0 0 1 386.715 56.222 Q 386.786 55.828 387.198 55.731 A 1.33 1.33 0 0 1 387.5 55.7 A 49.347 49.347 0 0 0 388.219 55.62 Q 393.569 54.988 397.6 53.3 A 39.969 39.969 0 0 0 397.778 53.225 Q 400.48 52.079 402.253 50.851 A 11.899 11.899 0 0 0 403.9 49.5 Q 405.9 47.5 407.1 45 A 34.707 34.707 0 0 0 407.609 43.893 Q 408.091 42.792 408.323 42.002 A 6.135 6.135 0 0 0 408.5 41.25 A 10.149 10.149 0 0 0 408.528 41.064 Q 408.642 40.255 408.68 39.106 A 37.706 37.706 0 0 0 408.7 37.85 Q 408.7 36.574 408.242 35.209 A 12.123 12.123 0 0 0 407.4 33.3 A 10.718 10.718 0 0 0 404.548 29.74 Q 402.55 28.136 399.688 27.471 A 19.851 19.851 0 0 0 395.2 27 A 22.79 22.79 0 0 0 391.943 27.225 A 15.955 15.955 0 0 0 380.35 34.6 A 29.858 29.858 0 0 0 377.238 40.866 A 32.699 32.699 0 0 0 375.4 51.95 Q 375.4 61.7 379.4 68 A 12.81 12.81 0 0 0 386.761 73.622 A 17.642 17.642 0 0 0 391.8 74.3 A 19.318 19.318 0 0 0 394.385 74.122 A 23.789 23.789 0 0 0 398.1 73.3 A 18.969 18.969 0 0 0 399.811 72.685 A 15.29 15.29 0 0 0 402.65 71.15 A 8.323 8.323 0 0 0 403.472 70.499 Q 404.239 69.81 404.938 68.868 A 16.229 16.229 0 0 0 406.15 66.95 A 12.28 12.28 0 0 0 407.336 63.758 Z M 485.336 63.758 A 15.743 15.743 0 0 0 485.7 60.3 A 2.254 2.254 0 0 0 485.687 60.064 Q 485.627 59.499 485.3 58.6 Q 485.084 58.007 484.796 57.734 A 0.777 0.777 0 0 0 484.25 57.5 Q 483.6 57.5 483.2 58.3 A 13.282 13.282 0 0 1 482.734 59.229 A 11.169 11.169 0 0 1 480.6 62 Q 477.6 64.8 473.3 64.8 A 10.927 10.927 0 0 1 471.135 64.597 A 7.102 7.102 0 0 1 466.8 62 Q 466 60.8 465.35 59.05 A 19.065 19.065 0 0 1 465.134 58.44 Q 464.7 57.136 464.7 56.4 A 1.002 1.002 0 0 1 464.715 56.222 Q 464.786 55.828 465.198 55.731 A 1.33 1.33 0 0 1 465.5 55.7 A 49.347 49.347 0 0 0 466.219 55.62 Q 471.569 54.988 475.6 53.3 A 39.969 39.969 0 0 0 475.778 53.225 Q 478.48 52.079 480.253 50.851 A 11.899 11.899 0 0 0 481.9 49.5 Q 483.9 47.5 485.1 45 A 34.707 34.707 0 0 0 485.609 43.893 Q 486.091 42.792 486.323 42.002 A 6.135 6.135 0 0 0 486.5 41.25 A 10.149 10.149 0 0 0 486.528 41.064 Q 486.642 40.255 486.68 39.106 A 37.706 37.706 0 0 0 486.7 37.85 Q 486.7 36.574 486.242 35.209 A 12.123 12.123 0 0 0 485.4 33.3 A 10.718 10.718 0 0 0 482.548 29.74 Q 480.55 28.136 477.688 27.471 A 19.851 19.851 0 0 0 473.2 27 A 22.79 22.79 0 0 0 469.943 27.225 A 15.955 15.955 0 0 0 458.35 34.6 A 29.858 29.858 0 0 0 455.238 40.866 A 32.699 32.699 0 0 0 453.4 51.95 Q 453.4 61.7 457.4 68 A 12.81 12.81 0 0 0 464.761 73.622 A 17.642 17.642 0 0 0 469.8 74.3 A 19.318 19.318 0 0 0 472.385 74.122 A 23.789 23.789 0 0 0 476.1 73.3 A 18.969 18.969 0 0 0 477.811 72.685 A 15.29 15.29 0 0 0 480.65 71.15 A 8.323 8.323 0 0 0 481.472 70.499 Q 482.239 69.81 482.938 68.868 A 16.229 16.229 0 0 0 484.15 66.95 A 12.28 12.28 0 0 0 485.336 63.758 Z M 531.5 69.4 L 532.6 46.1 A 56.956 56.956 0 0 0 532.489 42.391 Q 532.14 37.074 530.7 34.8 A 5.315 5.315 0 0 0 530.137 34.021 Q 529.75 33.581 529.3 33.3 Q 528.744 33.115 528.703 32.586 A 1.117 1.117 0 0 1 528.7 32.5 A 1.633 1.633 0 0 1 529.15 31.44 Q 530.045 30.393 532.726 29.381 A 29.032 29.032 0 0 1 533.8 29 Q 538.9 27.3 541.25 27.3 A 6.96 6.96 0 0 1 542.052 27.342 Q 542.889 27.44 543.302 27.764 A 1.005 1.005 0 0 1 543.7 28.5 Q 543.7 30.371 543.218 38.678 A 1383.124 1383.124 0 0 1 543.15 39.85 Q 542.6 49.2 542.6 59.5 A 141.596 141.596 0 0 0 542.642 63.088 Q 542.825 70.269 543.8 72.3 A 2.227 2.227 0 0 1 544.015 72.769 A 1.741 1.741 0 0 1 544.1 73.3 Q 544.1 74.466 541.041 74.586 A 18.959 18.959 0 0 1 540.3 74.6 Q 536.5 74.6 532.5 72.6 Q 531.529 72.114 531.501 69.553 A 14.074 14.074 0 0 1 531.5 69.4 Z M 183.6 47 L 183.7 49.5 A 0.63 0.63 0 0 0 183.756 49.777 Q 183.913 50.1 184.5 50.1 A 15.756 15.756 0 0 0 187.587 49.512 A 12.437 12.437 0 0 0 190.1 48.45 A 14.11 14.11 0 0 0 191.792 47.342 Q 192.969 46.436 193.7 45.4 A 24.083 24.083 0 0 0 194.958 43.238 Q 196.138 40.922 196.294 39.071 A 6.975 6.975 0 0 0 196.3 39 L 196.4 37.8 Q 196.4 32.868 192.812 32.441 A 6.028 6.028 0 0 0 192.1 32.4 A 5.962 5.962 0 0 0 187.495 34.459 A 8.273 8.273 0 0 0 186.9 35.2 A 15.444 15.444 0 0 0 184.399 40.442 Q 183.801 42.623 183.651 45.211 A 30.786 30.786 0 0 0 183.6 47 Z M 385.9 47 L 386 49.5 A 0.63 0.63 0 0 0 386.056 49.777 Q 386.213 50.1 386.8 50.1 A 15.756 15.756 0 0 0 389.887 49.512 A 12.437 12.437 0 0 0 392.4 48.45 A 14.11 14.11 0 0 0 394.092 47.342 Q 395.269 46.436 396 45.4 A 24.083 24.083 0 0 0 397.258 43.238 Q 398.438 40.922 398.594 39.071 A 6.975 6.975 0 0 0 398.6 39 L 398.7 37.8 Q 398.7 32.868 395.112 32.441 A 6.028 6.028 0 0 0 394.4 32.4 A 5.962 5.962 0 0 0 389.795 34.459 A 8.273 8.273 0 0 0 389.2 35.2 A 15.444 15.444 0 0 0 386.699 40.442 Q 386.101 42.623 385.951 45.211 A 30.786 30.786 0 0 0 385.9 47 Z M 463.9 47 L 464 49.5 A 0.63 0.63 0 0 0 464.056 49.777 Q 464.213 50.1 464.8 50.1 A 15.756 15.756 0 0 0 467.887 49.512 A 12.437 12.437 0 0 0 470.4 48.45 A 14.11 14.11 0 0 0 472.092 47.342 Q 473.269 46.436 474 45.4 A 24.083 24.083 0 0 0 475.258 43.238 Q 476.438 40.922 476.594 39.071 A 6.975 6.975 0 0 0 476.6 39 L 476.7 37.8 Q 476.7 32.868 473.112 32.441 A 6.028 6.028 0 0 0 472.4 32.4 A 5.962 5.962 0 0 0 467.795 34.459 A 8.273 8.273 0 0 0 467.2 35.2 A 15.444 15.444 0 0 0 464.699 40.442 Q 464.101 42.623 463.951 45.211 A 30.786 30.786 0 0 0 463.9 47 Z M 539.5 18.9 L 537.1 18.8 Q 534.4 18.8 533.6 20.1 A 0.819 0.819 0 0 1 533.465 20.258 A 0.533 0.533 0 0 1 533.1 20.4 A 0.813 0.813 0 0 1 532.408 19.955 Q 531.94 19.214 531.832 17.244 A 23.792 23.792 0 0 1 531.8 15.95 A 22.865 22.865 0 0 1 531.865 14.159 Q 532.08 11.427 533.017 10.43 A 2.066 2.066 0 0 1 533.15 10.3 A 3.789 3.789 0 0 1 534.314 9.617 Q 535.414 9.192 537.099 9.116 A 16.833 16.833 0 0 1 537.85 9.1 A 15.28 15.28 0 0 1 539.369 9.17 Q 541.495 9.383 542.4 10.25 A 3.338 3.338 0 0 1 543.177 11.44 Q 543.574 12.431 543.598 13.902 A 11.768 11.768 0 0 1 543.6 14.1 A 12.79 12.79 0 0 1 543.544 15.347 Q 543.375 17.063 542.7 17.85 A 2.556 2.556 0 0 1 541.738 18.53 Q 540.921 18.877 539.67 18.899 A 9.739 9.739 0 0 1 539.5 18.9 Z M 388.5 20 L 388.7 19.2 Q 391.4 13.8 395.9 8.4 Q 396.264 7.945 397.003 7.904 A 2.694 2.694 0 0 1 397.15 7.9 A 1.663 1.663 0 0 1 397.642 7.989 Q 398.4 8.229 399.668 9.114 A 22.277 22.277 0 0 1 400 9.35 Q 401.989 10.792 402 11.839 A 1.105 1.105 0 0 1 402 11.85 A 1.953 1.953 0 0 1 401.815 12.709 Q 401.592 13.172 401.1 13.5 A 53.672 53.672 0 0 1 397.291 16.296 Q 395.371 17.587 393.12 18.907 A 105.115 105.115 0 0 1 390.3 20.5 A 2.142 2.142 0 0 1 389.941 20.736 Q 389.695 20.862 389.45 20.891 A 1.258 1.258 0 0 1 389.3 20.9 Q 388.5 20.9 388.5 20 Z" vector-effect="non-scaling-stroke"/></g></svg>