<svg width="652.8" height="102.4" viewBox="0 0 652.8 102.4" xmlns="http://www.w3.org/2000/svg"><g id="svgGroup" stroke-linecap="round" fill-rule="evenodd" font-size="9pt" stroke="#3fc1c9" stroke-width="0.25mm" fill="#3fc1c9" style="stroke:#3fc1c9;stroke-width:0.25mm;fill:#3fc1c9"><path d="M 37.9 40.6 L 37.8 28.7 A 414.618 414.618 0 0 0 37.743 21.526 Q 37.574 11.805 36.907 7.018 A 28.366 28.366 0 0 0 36.6 5.2 A 7.849 7.849 0 0 1 36.503 4.83 Q 36.419 4.47 36.404 4.212 A 1.854 1.854 0 0 1 36.4 4.1 A 1.862 1.862 0 0 1 36.914 2.854 Q 37.722 1.934 39.8 1.2 Q 43.2 0 45.2 0 A 4.984 4.984 0 0 1 45.88 0.042 Q 47.2 0.225 47.2 1.2 A 0.57 0.57 0 0 1 47.194 1.265 Q 47.164 1.479 47.001 2.297 A 52.876 52.876 0 0 1 47 2.3 Q 45.253 11.645 44.833 29.36 A 510.028 510.028 0 0 0 44.7 41.4 Q 44.7 59.7 46.8 67.7 Q 47.169 68.898 47.198 69.077 A 0.158 0.158 0 0 1 47.2 69.1 A 2.104 2.104 0 0 1 46.557 70.566 Q 45.482 71.702 42.614 72.546 A 21.706 21.706 0 0 1 42.6 72.55 Q 38.119 73.865 36.2 73.899 A 5.648 5.648 0 0 1 36.1 73.9 Q 33.419 73.9 32.256 72.782 A 2.729 2.729 0 0 1 32 72.5 A 13.169 13.169 0 0 1 30.95 70.867 Q 29.296 67.928 26.669 61.397 A 289.505 289.505 0 0 1 24.85 56.75 Q 19.9 43.8 16.2 32.6 L 12.4 21.4 A 1.594 1.594 0 0 0 12.308 21.205 Q 12.189 20.996 12.042 20.93 A 0.343 0.343 0 0 0 11.9 20.9 Q 11.5 20.9 11 21.6 Q 10.5 30.9 10.5 40.2 Q 10.5 47.32 10.588 51.92 A 238.744 238.744 0 0 0 10.65 54.5 Q 10.765 58.328 10.909 60.75 A 78.772 78.772 0 0 0 11 62.1 Q 11.2 64.7 11.4 66.25 Q 11.6 67.8 11.75 68.5 Q 11.899 69.194 11.9 69.495 A 1.225 1.225 0 0 1 11.9 69.5 A 2.165 2.165 0 0 1 11.187 71.083 Q 10.366 71.888 8.6 72.45 A 25.122 25.122 0 0 1 5.931 73.149 Q 4.565 73.423 3.331 73.483 A 14.022 14.022 0 0 1 2.65 73.5 A 8.836 8.836 0 0 1 1.783 73.461 Q 0.932 73.377 0.487 73.109 A 0.904 0.904 0 0 1 0 72.3 A 3.101 3.101 0 0 1 0.035 71.852 Q 0.103 71.391 0.3 70.8 Q 0.6 69.9 1 68.5 A 20.401 20.401 0 0 0 1.462 66.393 Q 2.1 62.69 2.4 55.75 A 399.699 399.699 0 0 0 2.673 47.159 Q 2.8 41.316 2.8 34.65 Q 2.8 23.243 2.522 17.813 A 95.062 95.062 0 0 0 2.5 17.4 A 108.426 108.426 0 0 0 2.222 13.594 Q 1.734 8.312 0.843 5.953 A 7.978 7.978 0 0 0 0.7 5.6 A 1.004 1.004 0 0 1 0.421 5.052 A 1.432 1.432 0 0 1 0.4 4.8 A 1.308 1.308 0 0 1 0.819 3.908 Q 1.677 3.003 4.292 2.131 A 32.115 32.115 0 0 1 5.7 1.7 A 61.09 61.09 0 0 1 8.495 0.975 Q 11.211 0.344 13.121 0.227 A 13.568 13.568 0 0 1 13.95 0.2 A 136.239 136.239 0 0 1 14.97 0.204 Q 16.721 0.217 17.261 0.279 A 1.767 1.767 0 0 1 17.4 0.3 A 2.136 2.136 0 0 1 17.552 0.295 Q 18.817 0.295 19.1 1.9 A 228.381 228.381 0 0 0 21.605 10.295 Q 23.083 14.939 24.918 20.147 A 449.682 449.682 0 0 0 27.25 26.6 A 310.408 310.408 0 0 0 29.803 33.281 Q 32.653 40.473 35.123 45.456 A 80.295 80.295 0 0 0 36.6 48.3 A 3.714 3.714 0 0 0 36.809 48.495 Q 37.166 48.8 37.4 48.8 Q 37.835 48.8 37.892 42.596 A 219.521 219.521 0 0 0 37.9 40.6 Z M 472.7 37.1 L 472.3 38.7 Q 472.055 41.151 472.01 48.473 A 577.636 577.636 0 0 0 472 52 A 379.196 379.196 0 0 0 472.016 55.594 Q 472.068 61.024 472.288 63.585 A 17.342 17.342 0 0 0 472.45 64.95 Q 472.838 67.236 472.892 68.22 A 5.233 5.233 0 0 1 472.9 68.5 A 2.223 2.223 0 0 1 472.674 69.456 Q 472.525 69.773 472.277 70.089 A 4.49 4.49 0 0 1 472.1 70.3 Q 468.737 73.861 462.636 73.9 A 21.203 21.203 0 0 1 462.5 73.9 A 5.566 5.566 0 0 1 461.752 73.854 Q 460.3 73.656 460.3 72.6 Q 462.3 60.6 462.3 42 Q 462.3 35.1 462 32.7 L 461.6 29.5 Q 461.5 28.4 461.2 27.1 A 0.856 0.856 0 0 1 461.673 26.346 Q 462.411 25.9 464.3 25.9 Q 467.343 25.9 469.029 27.388 A 5.429 5.429 0 0 1 470.4 29.3 Q 470.45 29.499 470.549 29.599 A 0.339 0.339 0 0 0 470.8 29.7 A 0.503 0.503 0 0 0 470.962 29.665 Q 471.326 29.534 472.171 28.921 A 20.464 20.464 0 0 0 472.2 28.9 A 11.402 11.402 0 0 1 476.285 26.891 Q 477.895 26.448 479.798 26.337 A 22.424 22.424 0 0 1 481.1 26.3 Q 484.3 26.3 487.4 27.5 Q 490.5 28.7 491.7 30.7 A 0.432 0.432 0 0 0 491.77 30.803 A 0.301 0.301 0 0 0 492 30.9 A 0.314 0.314 0 0 0 492.118 30.873 Q 492.287 30.803 492.544 30.555 A 4.17 4.17 0 0 0 492.6 30.5 Q 496.8 26.3 503.5 26.3 A 19.13 19.13 0 0 1 508.063 26.806 A 11.157 11.157 0 0 1 515.7 32.7 A 11.149 11.149 0 0 1 516.52 35.136 Q 516.781 36.323 516.863 37.704 A 21.987 21.987 0 0 1 516.9 39 Q 516.9 42.8 516.3 49.8 Q 515.7 56.8 515.7 60.5 Q 515.7 64.2 516.45 67.2 Q 517.042 69.569 517.635 70.878 A 7.137 7.137 0 0 0 517.95 71.5 A 37.974 37.974 0 0 1 518.126 71.808 Q 518.592 72.634 518.68 72.905 A 0.34 0.34 0 0 1 518.7 73 A 1.007 1.007 0 0 1 518.105 73.922 Q 517.603 74.195 516.677 74.271 A 9.555 9.555 0 0 1 515.9 74.3 Q 509 74.3 506.3 71.5 A 9.477 9.477 0 0 1 503.774 66.348 A 13.337 13.337 0 0 1 503.6 64.15 A 30.691 30.691 0 0 1 503.781 60.994 Q 504.122 57.715 505.11 53.319 A 112.601 112.601 0 0 1 505.45 51.85 Q 506.916 45.709 507.22 41.986 A 22.06 22.06 0 0 0 507.3 40.2 A 14.32 14.32 0 0 0 507.036 37.317 Q 506.128 32.92 502.098 32.377 A 8.972 8.972 0 0 0 500.9 32.3 A 7.366 7.366 0 0 0 499.039 32.523 A 5.253 5.253 0 0 0 496.6 33.9 A 9.045 9.045 0 0 0 495.654 35 Q 495.204 35.624 494.952 36.247 A 4.477 4.477 0 0 0 494.7 37.1 L 494.5 38.7 A 94.148 94.148 0 0 0 494.256 42.417 Q 494.1 45.738 494.1 49.8 Q 494.1 54.777 494.217 58.083 A 97.403 97.403 0 0 0 494.3 59.95 Q 494.5 63.6 494.7 65.65 Q 494.9 67.7 494.9 68.1 A 3.939 3.939 0 0 1 493.393 71.215 Q 492.801 71.717 491.976 72.133 A 10.281 10.281 0 0 1 491.4 72.4 Q 487.9 73.9 484.6 73.9 A 3.015 3.015 0 0 1 483.969 73.84 Q 482.9 73.61 482.9 72.5 A 57.058 57.058 0 0 0 483.638 67.573 Q 484.207 62.394 484.287 55.243 A 214.095 214.095 0 0 0 484.3 52.85 A 2514.692 2514.692 0 0 0 484.297 48.47 Q 484.281 39.769 484.2 37.9 A 6.996 6.996 0 0 0 483.939 36.241 A 5.014 5.014 0 0 0 482.8 34.2 Q 481.754 33.073 480.934 32.724 A 2.069 2.069 0 0 0 480.55 32.6 A 7.404 7.404 0 0 0 479.883 32.495 Q 479.069 32.4 477.9 32.4 A 3.987 3.987 0 0 0 475.981 32.911 Q 475.281 33.29 474.6 33.95 A 8.589 8.589 0 0 0 473.654 35.022 Q 473.181 35.663 472.927 36.314 A 4.368 4.368 0 0 0 472.7 37.1 Z M 317.7 35.5 L 317.3 36.5 A 73.976 73.976 0 0 0 316.721 41.636 Q 316.092 49.206 315.945 62.514 A 787.241 787.241 0 0 0 315.9 71.2 Q 315.9 81.883 316.282 87.01 A 57.873 57.873 0 0 0 316.35 87.85 A 457.165 457.165 0 0 1 316.503 89.601 Q 316.767 92.701 316.796 93.687 A 7.311 7.311 0 0 1 316.8 93.9 Q 316.8 94.9 316.2 95.7 Q 314.2 98.3 310.8 100.35 A 19.058 19.058 0 0 1 308.753 101.431 Q 307.67 101.916 306.682 102.158 A 7.91 7.91 0 0 1 304.8 102.4 A 1.083 1.083 0 0 1 304.351 102.314 Q 303.888 102.105 303.814 101.389 A 2.824 2.824 0 0 1 303.8 101.1 A 91.375 91.375 0 0 0 304.467 95.519 Q 305.597 83.475 306.3 56.6 Q 306.5 46.5 306.5 40 A 84.882 84.882 0 0 0 305.994 30.588 A 74.841 74.841 0 0 0 305.6 27.6 A 0.799 0.799 0 0 1 306.092 26.854 Q 306.481 26.657 307.176 26.613 A 6.733 6.733 0 0 1 307.6 26.6 A 13.437 13.437 0 0 1 309.19 26.689 Q 310.212 26.811 311.05 27.1 A 10.171 10.171 0 0 1 311.798 27.389 Q 312.523 27.705 312.944 28.058 A 2.402 2.402 0 0 1 313.1 28.2 Q 314.699 29.799 314.95 29.8 Q 315.164 29.8 316.146 29.141 A 28.893 28.893 0 0 0 316.5 28.9 Q 320.4 26.4 325.15 26.4 A 15.854 15.854 0 0 1 329.794 27.058 A 13.537 13.537 0 0 1 333.45 28.8 Q 337 31.2 338.5 35.1 Q 341.2 41.8 341.2 49.3 A 42.64 42.64 0 0 1 338.827 63.175 A 48.399 48.399 0 0 1 338.5 64.1 A 17.206 17.206 0 0 1 336.262 68.29 A 14.892 14.892 0 0 1 334.1 70.65 Q 331.2 73.2 327.3 73.2 Q 319.6 73.2 319.6 64.3 Q 319.6 62.36 320.254 61.988 A 0.688 0.688 0 0 1 320.6 61.9 A 0.448 0.448 0 0 1 320.701 61.916 Q 320.978 61.984 321.75 62.35 Q 322.7 62.8 323.6 62.8 Q 330.7 62.8 330.7 47.75 A 44.754 44.754 0 0 0 330.444 42.731 Q 329.87 37.68 328.012 35.172 A 5.806 5.806 0 0 0 323.1 32.7 A 7.717 7.717 0 0 0 321.444 32.869 A 5.62 5.62 0 0 0 319.55 33.65 A 8.98 8.98 0 0 0 318.817 34.181 Q 317.988 34.853 317.7 35.5 Z M 357 18.2 L 356.9 27.9 A 1.331 1.331 0 0 0 356.915 28.112 Q 356.975 28.482 357.271 28.499 A 0.505 0.505 0 0 0 357.3 28.5 A 1.159 1.159 0 0 0 357.775 28.394 Q 357.938 28.322 358.1 28.2 A 7.887 7.887 0 0 1 360.107 27.25 Q 362.09 26.606 365.017 26.515 A 31.797 31.797 0 0 1 366 26.5 A 20.729 20.729 0 0 1 370.676 26.991 Q 373.676 27.686 375.786 29.366 A 11.325 11.325 0 0 1 378.6 32.7 A 9.014 9.014 0 0 1 379.466 34.908 Q 379.737 35.967 379.839 37.223 A 19.527 19.527 0 0 1 379.9 38.8 Q 379.9 41.709 379.636 46.319 A 302.457 302.457 0 0 1 379.45 49.3 Q 379.036 55.47 379.003 58.333 A 40.902 40.902 0 0 0 379 58.8 Q 379 68.6 381.8 71.8 A 2.254 2.254 0 0 1 382.058 72.105 Q 382.185 72.287 382.245 72.469 A 1.048 1.048 0 0 1 382.3 72.8 A 0.567 0.567 0 0 1 381.972 73.276 Q 381.174 73.762 378.439 73.797 A 34.141 34.141 0 0 1 378 73.8 Q 368.139 73.8 366.661 65.996 A 16.113 16.113 0 0 1 366.4 63 Q 366.4 58.8 368.4 51.2 Q 369.939 45.354 370.294 41.874 A 18.648 18.648 0 0 0 370.4 40 A 12.227 12.227 0 0 0 370.221 37.839 Q 370.009 36.658 369.544 35.722 A 5.954 5.954 0 0 0 368.7 34.45 A 5.565 5.565 0 0 0 365.25 32.593 A 8.055 8.055 0 0 0 364 32.5 Q 361 32.5 359.25 33.8 A 8.604 8.604 0 0 0 358.289 34.621 Q 357.832 35.079 357.535 35.549 A 3.659 3.659 0 0 0 357.1 36.5 L 356.8 37.8 A 36.937 36.937 0 0 0 356.766 38.804 Q 356.712 41.114 356.702 47.129 A 1733.485 1733.485 0 0 0 356.7 49.9 A 327.044 327.044 0 0 0 356.724 54.02 Q 356.794 59.532 357.067 62.131 A 18.083 18.083 0 0 0 357.2 63.15 A 249.343 249.343 0 0 1 357.317 63.871 Q 357.7 66.25 357.7 66.6 A 4.465 4.465 0 0 1 356.71 69.358 Q 355.735 70.634 353.8 71.75 A 17.947 17.947 0 0 1 350.226 73.346 A 13.684 13.684 0 0 1 346.1 74 A 1.743 1.743 0 0 1 345.512 73.909 Q 344.743 73.634 344.702 72.525 A 3.444 3.444 0 0 1 344.7 72.4 L 344.9 70.5 Q 347.1 53.7 347.1 34.1 Q 347.1 26.5 346.5 18.7 L 346.4 16.5 A 16.478 16.478 0 0 0 346.081 14.203 Q 345.822 12.997 345.38 11.985 A 9.795 9.795 0 0 0 345.25 11.7 Q 344.3 9.7 343.5 9.1 L 342.6 8.6 Q 341.919 8.211 341.901 7.726 A 0.709 0.709 0 0 1 341.9 7.7 Q 341.9 6.542 345.117 4.939 A 32.205 32.205 0 0 1 346.6 4.25 Q 350.312 2.631 352.683 2.291 A 8.253 8.253 0 0 1 353.85 2.2 A 9.028 9.028 0 0 1 354.724 2.239 Q 356.345 2.397 356.578 3.206 A 0.962 0.962 0 0 1 356.6 3.3 Q 356.906 7.205 356.978 13.865 A 403.366 403.366 0 0 1 357 18.2 Z M 418.7 41.9 L 418.5 54.7 Q 418.5 65.718 420.49 69.461 A 4.67 4.67 0 0 0 421.4 70.7 A 1.474 1.474 0 0 1 421.659 71.042 A 1.16 1.16 0 0 1 421.8 71.6 A 0.851 0.851 0 0 1 421.307 72.315 Q 420.111 73.043 416.009 73.096 A 51.214 51.214 0 0 1 415.35 73.1 A 16.398 16.398 0 0 1 413.02 72.949 Q 410.423 72.574 409.309 71.267 A 3.522 3.522 0 0 1 408.5 69.3 A 9.722 9.722 0 0 1 408.461 68.815 Q 408.4 67.788 408.4 65.6 L 408.8 49.6 Q 408.8 48.9 408 48.9 Q 403.2 48.9 399 51.6 A 11.073 11.073 0 0 0 396.785 53.434 A 7.289 7.289 0 0 0 394.8 58.5 A 6.683 6.683 0 0 0 395.03 60.291 A 5.28 5.28 0 0 0 396 62.2 Q 397.2 63.7 398.95 63.7 A 7.244 7.244 0 0 0 400.178 63.602 Q 400.892 63.479 401.474 63.202 A 4.108 4.108 0 0 0 401.85 63 A 152.561 152.561 0 0 1 402.248 62.759 Q 402.931 62.346 403.145 62.229 A 1.827 1.827 0 0 1 403.2 62.2 Q 404.702 62.377 404.877 65.012 A 11.16 11.16 0 0 1 404.9 65.75 A 5.974 5.974 0 0 1 402.774 70.407 A 8.726 8.726 0 0 1 401.8 71.15 A 12.478 12.478 0 0 1 398.243 72.801 A 10.977 10.977 0 0 1 395.3 73.2 Q 392.02 73.2 389.625 72.084 A 10.017 10.017 0 0 1 389.45 72 A 14.058 14.058 0 0 1 387.941 71.15 Q 387.206 70.67 386.656 70.149 A 6.305 6.305 0 0 1 385.9 69.3 A 13.412 13.412 0 0 1 384.377 66.599 A 15.461 15.461 0 0 1 384.1 65.9 A 19.396 19.396 0 0 1 383.673 64.259 Q 383.4 62.963 383.4 61.9 A 18.021 18.021 0 0 1 384.058 56.905 A 13.631 13.631 0 0 1 387.8 50.7 A 23.21 23.21 0 0 1 394.652 46.221 A 30.399 30.399 0 0 1 399.1 44.7 A 96.123 96.123 0 0 0 401.971 44.09 Q 408.269 42.642 408.6 41.4 A 5.796 5.796 0 0 0 408.731 40.756 Q 408.845 40.013 408.882 38.889 A 36.097 36.097 0 0 0 408.9 37.7 Q 408.9 33.492 405.495 32.625 A 8.105 8.105 0 0 0 403.5 32.4 Q 401.2 32.4 399.4 33.85 A 5.025 5.025 0 0 0 398.202 35.207 A 4.432 4.432 0 0 0 397.6 37.5 L 398.2 39.9 A 1.686 1.686 0 0 1 397.387 41.137 Q 396.486 41.734 394.6 41.9 L 393.5 42 A 9.738 9.738 0 0 1 391.585 41.823 Q 389.898 41.484 388.75 40.5 A 4.916 4.916 0 0 1 387.013 36.922 A 6.791 6.791 0 0 1 387 36.5 A 5.787 5.787 0 0 1 387.201 35.033 Q 387.375 34.371 387.698 33.658 A 11.691 11.691 0 0 1 388.05 32.95 A 10.117 10.117 0 0 1 389.534 30.852 A 8.752 8.752 0 0 1 390.7 29.8 A 8.559 8.559 0 0 1 391.871 29.075 Q 393.139 28.412 395.019 27.836 A 31.556 31.556 0 0 1 395.65 27.65 A 25.255 25.255 0 0 1 399.74 26.834 A 21.28 21.28 0 0 1 402.1 26.7 Q 404.655 26.7 406.259 26.836 A 19.819 19.819 0 0 1 406.9 26.9 A 20.425 20.425 0 0 1 408.068 27.076 Q 409.308 27.296 410.988 27.709 A 77.138 77.138 0 0 1 411.55 27.85 A 10.173 10.173 0 0 1 415.027 29.442 A 9.577 9.577 0 0 1 416.45 30.7 A 9.024 9.024 0 0 1 417.699 32.379 A 6.389 6.389 0 0 1 418.55 35.15 Q 418.665 36.949 418.692 39.95 A 217.947 217.947 0 0 1 418.7 41.9 Z M 555.4 41.9 L 555.2 54.7 Q 555.2 65.718 557.19 69.461 A 4.67 4.67 0 0 0 558.1 70.7 A 1.474 1.474 0 0 1 558.359 71.042 A 1.16 1.16 0 0 1 558.5 71.6 A 0.851 0.851 0 0 1 558.007 72.315 Q 556.811 73.043 552.709 73.096 A 51.214 51.214 0 0 1 552.05 73.1 A 16.398 16.398 0 0 1 549.72 72.949 Q 547.123 72.574 546.009 71.267 A 3.522 3.522 0 0 1 545.2 69.3 A 9.722 9.722 0 0 1 545.161 68.815 Q 545.1 67.788 545.1 65.6 L 545.5 49.6 Q 545.5 48.9 544.7 48.9 Q 539.9 48.9 535.7 51.6 A 11.073 11.073 0 0 0 533.485 53.434 A 7.289 7.289 0 0 0 531.5 58.5 A 6.683 6.683 0 0 0 531.73 60.291 A 5.28 5.28 0 0 0 532.7 62.2 Q 533.9 63.7 535.65 63.7 A 7.244 7.244 0 0 0 536.878 63.602 Q 537.592 63.479 538.174 63.202 A 4.108 4.108 0 0 0 538.55 63 A 152.561 152.561 0 0 1 538.948 62.759 Q 539.631 62.346 539.845 62.229 A 1.827 1.827 0 0 1 539.9 62.2 Q 541.402 62.377 541.577 65.012 A 11.16 11.16 0 0 1 541.6 65.75 A 5.974 5.974 0 0 1 539.474 70.407 A 8.726 8.726 0 0 1 538.5 71.15 A 12.478 12.478 0 0 1 534.943 72.801 A 10.977 10.977 0 0 1 532 73.2 Q 528.72 73.2 526.325 72.084 A 10.017 10.017 0 0 1 526.15 72 A 14.058 14.058 0 0 1 524.641 71.15 Q 523.906 70.67 523.356 70.149 A 6.305 6.305 0 0 1 522.6 69.3 A 13.412 13.412 0 0 1 521.077 66.599 A 15.461 15.461 0 0 1 520.8 65.9 A 19.396 19.396 0 0 1 520.373 64.259 Q 520.1 62.963 520.1 61.9 A 18.021 18.021 0 0 1 520.758 56.905 A 13.631 13.631 0 0 1 524.5 50.7 A 23.21 23.21 0 0 1 531.352 46.221 A 30.399 30.399 0 0 1 535.8 44.7 A 96.123 96.123 0 0 0 538.671 44.09 Q 544.969 42.642 545.3 41.4 A 5.796 5.796 0 0 0 545.431 40.756 Q 545.545 40.013 545.582 38.889 A 36.097 36.097 0 0 0 545.6 37.7 Q 545.6 33.492 542.195 32.625 A 8.105 8.105 0 0 0 540.2 32.4 Q 537.9 32.4 536.1 33.85 A 5.025 5.025 0 0 0 534.902 35.207 A 4.432 4.432 0 0 0 534.3 37.5 L 534.9 39.9 A 1.686 1.686 0 0 1 534.087 41.137 Q 533.186 41.734 531.3 41.9 L 530.2 42 A 9.738 9.738 0 0 1 528.285 41.823 Q 526.598 41.484 525.45 40.5 A 4.916 4.916 0 0 1 523.713 36.922 A 6.791 6.791 0 0 1 523.7 36.5 A 5.787 5.787 0 0 1 523.901 35.033 Q 524.075 34.371 524.398 33.658 A 11.691 11.691 0 0 1 524.75 32.95 A 10.117 10.117 0 0 1 526.234 30.852 A 8.752 8.752 0 0 1 527.4 29.8 A 8.559 8.559 0 0 1 528.571 29.075 Q 529.839 28.412 531.719 27.836 A 31.556 31.556 0 0 1 532.35 27.65 A 25.255 25.255 0 0 1 536.44 26.834 A 21.28 21.28 0 0 1 538.8 26.7 Q 541.355 26.7 542.959 26.836 A 19.819 19.819 0 0 1 543.6 26.9 A 20.425 20.425 0 0 1 544.768 27.076 Q 546.008 27.296 547.688 27.709 A 77.138 77.138 0 0 1 548.25 27.85 A 10.173 10.173 0 0 1 551.727 29.442 A 9.577 9.577 0 0 1 553.15 30.7 A 9.024 9.024 0 0 1 554.399 32.379 A 6.389 6.389 0 0 1 555.25 35.15 Q 555.365 36.949 555.392 39.95 A 217.947 217.947 0 0 1 555.4 41.9 Z M 88.5 27.6 L 89.5 27.9 A 4.707 4.707 0 0 1 89.938 28.107 Q 90.7 28.522 90.7 29 A 0.68 0.68 0 0 1 90.485 29.493 Q 90.312 29.667 90 29.8 A 17.577 17.577 0 0 0 85.586 31.826 A 20.272 20.272 0 0 0 84.8 32.35 A 25.141 25.141 0 0 0 83.95 32.969 Q 82.3 34.231 82.3 34.8 L 82.9 35.5 A 11.028 11.028 0 0 1 86.743 39.16 A 14.781 14.781 0 0 1 87.85 41.2 A 28.882 28.882 0 0 1 88.926 43.943 Q 89.387 45.337 89.612 46.594 A 13.765 13.765 0 0 1 89.8 48.1 L 90 51.2 A 29.228 29.228 0 0 1 89.092 58.666 A 21.932 21.932 0 0 1 84.5 67.5 Q 79 73.9 69.5 73.9 A 22.823 22.823 0 0 1 65.549 73.575 Q 63.187 73.16 61.231 72.215 A 14.507 14.507 0 0 1 61.2 72.2 A 20.513 20.513 0 0 1 59.012 70.978 Q 57.926 70.275 57.105 69.506 A 9.584 9.584 0 0 1 56.05 68.35 A 18.294 18.294 0 0 1 53.528 63.835 A 20.52 20.52 0 0 1 53.4 63.5 Q 52.2 59.8 52.2 55.85 A 24.487 24.487 0 0 1 53.309 48.65 A 27.781 27.781 0 0 1 53.55 47.9 A 27.438 27.438 0 0 1 54.433 45.605 Q 55.447 43.306 56.65 42 Q 58.4 40.1 60.6 38.9 A 20.03 20.03 0 0 1 62.069 38.183 Q 63.872 37.4 65.1 37.4 A 6.31 6.31 0 0 1 65.634 37.421 Q 66.512 37.496 66.729 37.843 A 0.475 0.475 0 0 1 66.8 38.1 L 66.2 39.1 A 13.334 13.334 0 0 0 64.215 42.314 Q 63.585 43.729 63.166 45.413 A 22.979 22.979 0 0 0 63.05 45.9 A 43.629 43.629 0 0 0 62.418 49.275 Q 62.179 50.922 62.12 52.391 A 23.691 23.691 0 0 0 62.1 53.35 Q 62.1 56.6 62.9 59.8 A 29.472 29.472 0 0 0 63.393 61.555 Q 63.911 63.189 64.502 64.223 A 7.103 7.103 0 0 0 64.7 64.55 Q 65.7 66.1 67 66.9 A 7.693 7.693 0 0 0 69.513 67.944 A 7.113 7.113 0 0 0 71 68.1 A 5.671 5.671 0 0 0 73.586 67.456 A 8.231 8.231 0 0 0 75.1 66.45 A 9.07 9.07 0 0 0 77.692 62.918 A 11.187 11.187 0 0 0 78 62.1 Q 79.8 57.1 79.8 51.8 A 26.693 26.693 0 0 0 79.342 46.697 Q 78.405 41.891 75.55 38.8 A 13.535 13.535 0 0 0 69.282 35.019 Q 67.11 34.379 64.497 34.239 A 28.005 28.005 0 0 0 63 34.2 Q 60.4 34.3 59.25 34.35 A 4.103 4.103 0 0 1 59.142 34.353 Q 58.461 34.365 58.225 34.125 A 0.444 0.444 0 0 1 58.1 33.8 Q 58.1 33.2 58.7 32.6 Q 65.1 26.7 80.3 26.7 Q 85.322 26.7 88.292 27.54 A 13.534 13.534 0 0 1 88.5 27.6 Z M 129.8 71.1 L 130.2 72.4 A 1.076 1.076 0 0 1 129.551 73.429 Q 129.005 73.7 128 73.7 Q 122.325 73.7 120.235 71.364 A 4.611 4.611 0 0 1 119.2 69.4 A 1.136 1.136 0 0 0 119.144 69.206 Q 119.106 69.108 119.051 69.041 A 0.371 0.371 0 0 0 118.75 68.9 Q 118.457 68.9 118.199 69.181 A 1.551 1.551 0 0 0 118.1 69.3 A 9.901 9.901 0 0 1 112.421 72.953 Q 110.756 73.372 108.767 73.398 A 20.281 20.281 0 0 1 108.5 73.4 A 16.055 16.055 0 0 1 104.119 72.766 A 21.267 21.267 0 0 1 101 71.6 Q 98.6 70.5 97.1 67.75 A 11.714 11.714 0 0 1 95.941 64.529 Q 95.6 62.906 95.6 61 L 97.1 39.1 Q 97.1 33.739 96.255 30.793 A 9.411 9.411 0 0 0 95.7 29.3 A 18.74 18.74 0 0 1 95.53 28.916 Q 95.2 28.144 95.2 27.9 A 1.102 1.102 0 0 1 95.24 27.594 A 0.733 0.733 0 0 1 95.7 27.1 Q 96.863 26.737 98.5 26.637 A 21.505 21.505 0 0 1 99.8 26.6 A 17.179 17.179 0 0 1 103.401 26.943 Q 108.658 28.075 109.384 32.944 A 11.235 11.235 0 0 1 109.5 34.6 Q 109.5 36.63 108.149 42.878 A 239.606 239.606 0 0 1 107.45 46 Q 105.434 54.752 105.401 58.524 A 14.196 14.196 0 0 0 105.4 58.65 Q 105.4 61.182 106.152 62.916 A 6.179 6.179 0 0 0 107.05 64.4 A 5.387 5.387 0 0 0 110.674 66.341 A 7.798 7.798 0 0 0 111.65 66.4 A 6.654 6.654 0 0 0 113.764 66.08 A 5.416 5.416 0 0 0 116.3 64.3 A 11.103 11.103 0 0 0 117.432 62.627 Q 118.12 61.363 118.3 60.1 L 118.6 58 Q 118.968 54.777 118.998 47.059 A 360.135 360.135 0 0 0 119 45.7 A 227.154 227.154 0 0 0 118.981 42.627 Q 118.897 36.459 118.45 34.55 A 68.205 68.205 0 0 1 118.263 33.73 Q 117.989 32.492 117.922 31.91 A 2.807 2.807 0 0 1 117.9 31.6 Q 117.9 29.202 121.579 27.771 A 14.663 14.663 0 0 1 121.9 27.65 Q 125.288 26.422 128.102 26.234 A 14.979 14.979 0 0 1 129.1 26.2 A 2.752 2.752 0 0 1 129.648 26.25 Q 130.492 26.422 130.588 27.193 A 1.681 1.681 0 0 1 130.6 27.4 A 113.425 113.425 0 0 0 129.539 35.925 Q 128.8 44.202 128.8 54.9 A 239.365 239.365 0 0 0 128.848 59.879 Q 128.989 66.616 129.544 69.871 A 15.496 15.496 0 0 0 129.8 71.1 Z M 141 57.5 L 140.1 53.4 Q 138.1 44.6 136.2 39.35 A 85.559 85.559 0 0 0 135.523 37.538 Q 134.131 33.95 133.4 33.3 L 132.4 32.4 Q 131.896 32.148 131.646 31.846 A 0.994 0.994 0 0 1 131.4 31.2 L 131.9 30.3 A 7.595 7.595 0 0 1 132.855 29.564 Q 134.129 28.719 136.25 27.85 Q 139.3 26.6 143 26.6 A 2.25 2.25 0 0 1 143.895 26.768 Q 144.819 27.164 145.1 28.5 A 64.3 64.3 0 0 1 146.336 32.831 Q 147.081 35.813 147.7 39.3 A 207.745 207.745 0 0 0 148.896 45.464 Q 149.667 49.156 150.65 53.3 A 86.75 86.75 0 0 0 151.267 55.754 Q 152.453 60.175 153.337 61.008 A 0.623 0.623 0 0 0 153.7 61.2 A 1.002 1.002 0 0 0 154.13 61.094 Q 154.558 60.891 155.05 60.3 Q 155.554 59.695 156.193 58.82 A 56.699 56.699 0 0 0 156.85 57.9 Q 157.9 56.4 159.45 52.1 A 33.197 33.197 0 0 0 160.332 49.292 Q 161 46.752 161 44.75 Q 161 42.236 160.83 40.673 A 14.969 14.969 0 0 0 160.75 40.05 A 6.188 6.188 0 0 0 160.409 38.793 Q 159.963 37.614 159.008 36.211 A 19.349 19.349 0 0 0 159 36.2 A 8.237 8.237 0 0 0 158.023 35.006 Q 157.397 34.381 156.712 34.03 A 4.043 4.043 0 0 0 155.6 33.65 Q 154.428 33.434 153.979 33.009 A 0.816 0.816 0 0 1 153.7 32.4 A 1.671 1.671 0 0 1 154.036 31.461 Q 154.754 30.416 157.003 29.191 A 26.831 26.831 0 0 1 157.95 28.7 A 20.724 20.724 0 0 1 162.649 27.017 A 17.299 17.299 0 0 1 166.4 26.6 A 3.301 3.301 0 0 1 169.449 28.576 Q 170.293 30.168 170.518 33.041 A 29.041 29.041 0 0 1 170.6 35.3 A 37.548 37.548 0 0 1 169.064 45.781 A 43.988 43.988 0 0 1 168.25 48.3 A 53.182 53.182 0 0 1 165.242 55.219 A 43.242 43.242 0 0 1 162.4 59.9 Q 156.173 68.981 150.993 72.826 A 20.122 20.122 0 0 1 149.4 73.9 A 11.784 11.784 0 0 1 148.753 74.245 Q 147.828 74.7 147.3 74.7 A 0.819 0.819 0 0 1 146.835 74.539 Q 146.374 74.222 145.893 73.284 A 8.675 8.675 0 0 1 145.85 73.2 A 11.734 11.734 0 0 1 145.484 72.372 Q 144.93 71.003 144.091 68.347 A 165.856 165.856 0 0 1 143.55 66.6 Q 142.218 62.217 141.292 58.647 A 135.422 135.422 0 0 1 141 57.5 Z M 590.463 69.13 A 11.598 11.598 0 0 0 594.2 60.4 Q 594.2 59.1 593.75 57.45 Q 593.3 55.8 592.4 55.8 Q 591.949 55.8 591.612 56.251 A 2.291 2.291 0 0 0 591.4 56.6 A 12.59 12.59 0 0 1 590.909 57.681 A 10.313 10.313 0 0 1 589.3 60 A 13.132 13.132 0 0 1 588.17 61.1 A 9.372 9.372 0 0 1 581.9 63.5 A 11.763 11.763 0 0 1 579.825 63.324 A 8.596 8.596 0 0 1 576.05 61.7 Q 573.7 59.9 572.85 57.05 Q 572.262 55.08 571.961 53.683 A 18.81 18.81 0 0 1 571.75 52.55 A 14.595 14.595 0 0 1 571.667 51.892 Q 571.5 50.305 571.5 47.65 A 23.531 23.531 0 0 1 571.634 45.164 A 28.226 28.226 0 0 1 572.45 40.85 Q 573.111 38.382 573.844 36.832 A 9.327 9.327 0 0 1 574.5 35.65 Q 575.6 34 577.25 32.95 Q 578.9 31.9 580.1 31.9 Q 584.9 31.9 584.9 35.8 A 6.715 6.715 0 0 1 584.896 36.044 Q 584.819 38.149 583.4 39 Q 581.8 39.7 581.7 40.8 A 5.637 5.637 0 0 0 581.745 41.526 A 3.931 3.931 0 0 0 583.1 44.1 A 12.899 12.899 0 0 0 583.632 44.534 Q 584.668 45.33 585.35 45.45 Q 586.2 45.6 587.55 45.6 A 4.337 4.337 0 0 0 588.149 45.558 Q 589.248 45.404 590.5 44.7 A 10.217 10.217 0 0 0 590.886 44.457 Q 593.104 42.988 593.961 40.702 A 9.062 9.062 0 0 0 594.5 37.5 Q 594.5 34.4 593.1 32.1 A 10.904 10.904 0 0 0 590.781 29.377 Q 588.733 27.66 585.789 26.968 A 19.182 19.182 0 0 0 581.4 26.5 A 23.222 23.222 0 0 0 577.784 26.772 A 17.774 17.774 0 0 0 571.8 28.8 Q 567.7 31.1 565.5 35.1 A 32.461 32.461 0 0 0 562.27 42.918 A 38.642 38.642 0 0 0 561 53 Q 561 62.5 565.3 68.05 Q 568.29 71.909 573.649 73.085 A 24.052 24.052 0 0 0 578.8 73.6 Q 585.1 73.6 589.65 69.85 A 14.999 14.999 0 0 0 590.463 69.13 Z M 455.8 37.5 L 455.3 45.1 L 455.7 48.6 A 1.548 1.548 0 0 1 454.714 50.069 Q 453.976 50.423 452.686 50.486 A 11.983 11.983 0 0 1 452.1 50.5 A 14.242 14.242 0 0 1 449.458 50.278 Q 445.109 49.452 444.82 45.567 A 7.663 7.663 0 0 1 444.8 45 A 6.774 6.774 0 0 1 444.865 44.115 Q 444.989 43.181 445.351 41.907 A 28.107 28.107 0 0 1 445.5 41.4 A 19.396 19.396 0 0 0 445.927 39.759 Q 446.2 38.463 446.2 37.4 Q 446.2 35.7 445.2 34.45 Q 444.2 33.2 442.3 33.2 A 4.424 4.424 0 0 0 439.092 34.508 A 5.392 5.392 0 0 0 439.05 34.55 A 7.667 7.667 0 0 0 438.2 35.548 Q 437.781 36.144 437.56 36.748 A 4.13 4.13 0 0 0 437.4 37.3 L 437 38.7 Q 436.548 41.037 436.436 45.733 A 140.562 140.562 0 0 0 436.4 49.05 Q 436.4 54.601 436.517 58.335 A 126.894 126.894 0 0 0 436.6 60.45 Q 436.773 64.047 436.947 65.691 A 20.03 20.03 0 0 0 437 66.15 A 100.246 100.246 0 0 1 437.068 66.687 Q 437.182 67.614 437.198 67.921 A 1.645 1.645 0 0 1 437.2 68 A 3.748 3.748 0 0 1 436.004 70.739 Q 435.48 71.259 434.726 71.709 A 9.641 9.641 0 0 1 434.1 72.05 A 14.928 14.928 0 0 1 430.613 73.303 A 12.66 12.66 0 0 1 427.9 73.6 A 11.155 11.155 0 0 1 426.886 73.558 Q 425.249 73.408 424.897 72.719 A 0.906 0.906 0 0 1 424.8 72.3 L 425.3 69.2 Q 426.241 63.355 426.549 55.117 A 230.877 230.877 0 0 0 426.7 46.5 A 309.445 309.445 0 0 0 426.645 40.432 Q 426.466 31.328 425.7 27.5 Q 425.7 26.3 427.8 26.3 A 12.127 12.127 0 0 1 430.415 26.561 Q 433.678 27.283 435 30 A 1.063 1.063 0 0 0 435.049 30.151 Q 435.153 30.4 435.35 30.4 A 0.371 0.371 0 0 0 435.487 30.363 Q 435.823 30.217 436.7 29.5 A 11.906 11.906 0 0 1 444.342 26.801 A 14.893 14.893 0 0 1 444.5 26.8 A 15.018 15.018 0 0 1 449.488 27.673 A 17.304 17.304 0 0 1 450.1 27.9 A 8.433 8.433 0 0 1 455.346 33.778 Q 455.8 35.44 455.8 37.5 Z M 205.036 63.258 A 15.743 15.743 0 0 0 205.4 59.8 A 2.254 2.254 0 0 0 205.387 59.564 Q 205.327 58.999 205 58.1 Q 204.784 57.507 204.496 57.234 A 0.777 0.777 0 0 0 203.95 57 Q 203.3 57 202.9 57.8 A 13.282 13.282 0 0 1 202.434 58.729 A 11.169 11.169 0 0 1 200.3 61.5 Q 197.3 64.3 193 64.3 A 10.927 10.927 0 0 1 190.835 64.097 A 7.102 7.102 0 0 1 186.5 61.5 Q 185.7 60.3 185.05 58.55 A 19.065 19.065 0 0 1 184.834 57.94 Q 184.4 56.636 184.4 55.9 A 1.002 1.002 0 0 1 184.415 55.722 Q 184.486 55.328 184.898 55.231 A 1.33 1.33 0 0 1 185.2 55.2 A 49.347 49.347 0 0 0 185.919 55.12 Q 191.269 54.488 195.3 52.8 A 39.969 39.969 0 0 0 195.478 52.725 Q 198.18 51.579 199.953 50.351 A 11.899 11.899 0 0 0 201.6 49 Q 203.6 47 204.8 44.5 A 34.707 34.707 0 0 0 205.309 43.393 Q 205.791 42.292 206.023 41.502 A 6.135 6.135 0 0 0 206.2 40.75 A 10.149 10.149 0 0 0 206.228 40.564 Q 206.342 39.755 206.38 38.606 A 37.706 37.706 0 0 0 206.4 37.35 Q 206.4 36.074 205.942 34.709 A 12.123 12.123 0 0 0 205.1 32.8 A 10.718 10.718 0 0 0 202.248 29.24 Q 200.25 27.636 197.388 26.971 A 19.851 19.851 0 0 0 192.9 26.5 A 22.79 22.79 0 0 0 189.643 26.725 A 15.955 15.955 0 0 0 178.05 34.1 A 29.858 29.858 0 0 0 174.938 40.366 A 32.699 32.699 0 0 0 173.1 51.45 Q 173.1 61.2 177.1 67.5 A 12.81 12.81 0 0 0 184.461 73.122 A 17.642 17.642 0 0 0 189.5 73.8 A 19.318 19.318 0 0 0 192.085 73.622 A 23.789 23.789 0 0 0 195.8 72.8 A 18.969 18.969 0 0 0 197.511 72.185 A 15.29 15.29 0 0 0 200.35 70.65 A 8.323 8.323 0 0 0 201.172 69.999 Q 201.939 69.31 202.638 68.368 A 16.229 16.229 0 0 0 203.85 66.45 A 12.28 12.28 0 0 0 205.036 63.258 Z M 281.436 63.258 A 15.743 15.743 0 0 0 281.8 59.8 A 2.254 2.254 0 0 0 281.787 59.564 Q 281.727 58.999 281.4 58.1 Q 281.184 57.507 280.896 57.234 A 0.777 0.777 0 0 0 280.35 57 Q 279.7 57 279.3 57.8 A 13.282 13.282 0 0 1 278.834 58.729 A 11.169 11.169 0 0 1 276.7 61.5 Q 273.7 64.3 269.4 64.3 A 10.927 10.927 0 0 1 267.235 64.097 A 7.102 7.102 0 0 1 262.9 61.5 Q 262.1 60.3 261.45 58.55 A 19.065 19.065 0 0 1 261.234 57.94 Q 260.8 56.636 260.8 55.9 A 1.002 1.002 0 0 1 260.815 55.722 Q 260.886 55.328 261.298 55.231 A 1.33 1.33 0 0 1 261.6 55.2 A 49.347 49.347 0 0 0 262.319 55.12 Q 267.669 54.488 271.7 52.8 A 39.969 39.969 0 0 0 271.878 52.725 Q 274.58 51.579 276.353 50.351 A 11.899 11.899 0 0 0 278 49 Q 280 47 281.2 44.5 A 34.707 34.707 0 0 0 281.709 43.393 Q 282.191 42.292 282.423 41.502 A 6.135 6.135 0 0 0 282.6 40.75 A 10.149 10.149 0 0 0 282.628 40.564 Q 282.742 39.755 282.78 38.606 A 37.706 37.706 0 0 0 282.8 37.35 Q 282.8 36.074 282.342 34.709 A 12.123 12.123 0 0 0 281.5 32.8 A 10.718 10.718 0 0 0 278.648 29.24 Q 276.65 27.636 273.788 26.971 A 19.851 19.851 0 0 0 269.3 26.5 A 22.79 22.79 0 0 0 266.043 26.725 A 15.955 15.955 0 0 0 254.45 34.1 A 29.858 29.858 0 0 0 251.338 40.366 A 32.699 32.699 0 0 0 249.5 51.45 Q 249.5 61.2 253.5 67.5 A 12.81 12.81 0 0 0 260.861 73.122 A 17.642 17.642 0 0 0 265.9 73.8 A 19.318 19.318 0 0 0 268.485 73.622 A 23.789 23.789 0 0 0 272.2 72.8 A 18.969 18.969 0 0 0 273.911 72.185 A 15.29 15.29 0 0 0 276.75 70.65 A 8.323 8.323 0 0 0 277.572 69.999 Q 278.339 69.31 279.038 68.368 A 16.229 16.229 0 0 0 280.25 66.45 A 12.28 12.28 0 0 0 281.436 63.258 Z M 651.436 63.258 A 15.743 15.743 0 0 0 651.8 59.8 A 2.254 2.254 0 0 0 651.787 59.564 Q 651.727 58.999 651.4 58.1 Q 651.184 57.507 650.896 57.234 A 0.777 0.777 0 0 0 650.35 57 Q 649.7 57 649.3 57.8 A 13.282 13.282 0 0 1 648.834 58.729 A 11.169 11.169 0 0 1 646.7 61.5 Q 643.7 64.3 639.4 64.3 A 10.927 10.927 0 0 1 637.235 64.097 A 7.102 7.102 0 0 1 632.9 61.5 Q 632.1 60.3 631.45 58.55 A 19.065 19.065 0 0 1 631.234 57.94 Q 630.8 56.636 630.8 55.9 A 1.002 1.002 0 0 1 630.815 55.722 Q 630.886 55.328 631.298 55.231 A 1.33 1.33 0 0 1 631.6 55.2 A 49.347 49.347 0 0 0 632.319 55.12 Q 637.669 54.488 641.7 52.8 A 39.969 39.969 0 0 0 641.878 52.725 Q 644.58 51.579 646.353 50.351 A 11.899 11.899 0 0 0 648 49 Q 650 47 651.2 44.5 A 34.707 34.707 0 0 0 651.709 43.393 Q 652.191 42.292 652.423 41.502 A 6.135 6.135 0 0 0 652.6 40.75 A 10.149 10.149 0 0 0 652.628 40.564 Q 652.742 39.755 652.78 38.606 A 37.706 37.706 0 0 0 652.8 37.35 Q 652.8 36.074 652.342 34.709 A 12.123 12.123 0 0 0 651.5 32.8 A 10.718 10.718 0 0 0 648.648 29.24 Q 646.65 27.636 643.788 26.971 A 19.851 19.851 0 0 0 639.3 26.5 A 22.79 22.79 0 0 0 636.043 26.725 A 15.955 15.955 0 0 0 624.45 34.1 A 29.858 29.858 0 0 0 621.338 40.366 A 32.699 32.699 0 0 0 619.5 51.45 Q 619.5 61.2 623.5 67.5 A 12.81 12.81 0 0 0 630.861 73.122 A 17.642 17.642 0 0 0 635.9 73.8 A 19.318 19.318 0 0 0 638.485 73.622 A 23.789 23.789 0 0 0 642.2 72.8 A 18.969 18.969 0 0 0 643.911 72.185 A 15.29 15.29 0 0 0 646.75 70.65 A 8.323 8.323 0 0 0 647.572 69.999 Q 648.339 69.31 649.038 68.368 A 16.229 16.229 0 0 0 650.25 66.45 A 12.28 12.28 0 0 0 651.436 63.258 Z M 223.4 14.7 L 222.8 51.4 A 424.742 424.742 0 0 0 222.839 57.365 Q 223.002 68.931 223.854 71.851 A 5.388 5.388 0 0 0 223.9 72 A 2.889 2.889 0 0 1 224.143 72.675 A 2.45 2.45 0 0 1 224.2 73.2 A 0.883 0.883 0 0 1 223.703 73.988 Q 222.999 74.4 221.3 74.4 A 13.803 13.803 0 0 1 218.438 74.081 Q 217.162 73.811 215.782 73.31 A 25.264 25.264 0 0 1 214.85 72.95 Q 211.865 71.731 211.39 69.911 A 2.802 2.802 0 0 1 211.3 69.2 A 160.71 160.71 0 0 0 212.355 59.532 Q 213.237 48.661 213.296 33.917 A 532.656 532.656 0 0 0 213.3 31.8 L 212.9 16.5 A 16.478 16.478 0 0 0 212.581 14.203 Q 212.322 12.997 211.88 11.985 A 9.795 9.795 0 0 0 211.75 11.7 Q 210.8 9.7 209.9 9.1 L 209.1 8.6 Q 208.419 8.211 208.401 7.726 A 0.709 0.709 0 0 1 208.4 7.7 Q 208.4 6.503 211.58 4.831 A 29.985 29.985 0 0 1 212.75 4.25 Q 217.1 2.2 221.2 2.2 A 3.486 3.486 0 0 1 221.828 2.252 Q 222.153 2.312 222.39 2.441 A 1.164 1.164 0 0 1 223 3.3 Q 223.4 5.9 223.4 14.7 Z M 243.7 14.7 L 243.1 51.4 A 424.742 424.742 0 0 0 243.139 57.365 Q 243.302 68.931 244.154 71.851 A 5.388 5.388 0 0 0 244.2 72 A 2.889 2.889 0 0 1 244.443 72.675 A 2.45 2.45 0 0 1 244.5 73.2 A 0.883 0.883 0 0 1 244.003 73.988 Q 243.299 74.4 241.6 74.4 A 13.803 13.803 0 0 1 238.738 74.081 Q 237.462 73.811 236.082 73.31 A 25.264 25.264 0 0 1 235.15 72.95 Q 232.165 71.731 231.69 69.911 A 2.802 2.802 0 0 1 231.6 69.2 A 160.71 160.71 0 0 0 232.655 59.532 Q 233.537 48.661 233.596 33.917 A 532.656 532.656 0 0 0 233.6 31.8 L 233.2 16.5 A 16.478 16.478 0 0 0 232.881 14.203 Q 232.622 12.997 232.18 11.985 A 9.795 9.795 0 0 0 232.05 11.7 Q 231.1 9.7 230.2 9.1 L 229.4 8.6 Q 228.719 8.211 228.701 7.726 A 0.709 0.709 0 0 1 228.7 7.7 Q 228.7 6.503 231.88 4.831 A 29.985 29.985 0 0 1 233.05 4.25 Q 237.4 2.2 241.5 2.2 A 3.486 3.486 0 0 1 242.128 2.252 Q 242.453 2.312 242.69 2.441 A 1.164 1.164 0 0 1 243.3 3.3 Q 243.7 5.9 243.7 14.7 Z M 601.8 68.9 L 602.9 45.6 A 56.956 56.956 0 0 0 602.789 41.891 Q 602.44 36.574 601 34.3 A 5.315 5.315 0 0 0 600.437 33.521 Q 600.05 33.081 599.6 32.8 Q 599.044 32.615 599.003 32.086 A 1.117 1.117 0 0 1 599 32 A 1.633 1.633 0 0 1 599.45 30.94 Q 600.345 29.893 603.026 28.881 A 29.032 29.032 0 0 1 604.1 28.5 Q 609.2 26.8 611.55 26.8 A 6.96 6.96 0 0 1 612.352 26.842 Q 613.189 26.94 613.602 27.264 A 1.005 1.005 0 0 1 614 28 Q 614 29.871 613.518 38.178 A 1383.124 1383.124 0 0 1 613.45 39.35 Q 612.9 48.7 612.9 59 A 141.596 141.596 0 0 0 612.942 62.588 Q 613.125 69.769 614.1 71.8 A 2.227 2.227 0 0 1 614.315 72.269 A 1.741 1.741 0 0 1 614.4 72.8 Q 614.4 73.966 611.341 74.086 A 18.959 18.959 0 0 1 610.6 74.1 Q 606.8 74.1 602.8 72.1 Q 601.829 71.614 601.801 69.053 A 14.074 14.074 0 0 1 601.8 68.9 Z M 183.6 46.5 L 183.7 49 A 0.63 0.63 0 0 0 183.756 49.277 Q 183.913 49.6 184.5 49.6 A 15.756 15.756 0 0 0 187.587 49.012 A 12.437 12.437 0 0 0 190.1 47.95 A 14.11 14.11 0 0 0 191.792 46.842 Q 192.969 45.936 193.7 44.9 A 24.083 24.083 0 0 0 194.958 42.738 Q 196.138 40.422 196.294 38.571 A 6.975 6.975 0 0 0 196.3 38.5 L 196.4 37.3 Q 196.4 32.368 192.812 31.941 A 6.028 6.028 0 0 0 192.1 31.9 A 5.962 5.962 0 0 0 187.495 33.959 A 8.273 8.273 0 0 0 186.9 34.7 A 15.444 15.444 0 0 0 184.399 39.942 Q 183.801 42.123 183.651 44.711 A 30.786 30.786 0 0 0 183.6 46.5 Z M 260 46.5 L 260.1 49 A 0.63 0.63 0 0 0 260.156 49.277 Q 260.313 49.6 260.9 49.6 A 15.756 15.756 0 0 0 263.987 49.012 A 12.437 12.437 0 0 0 266.5 47.95 A 14.11 14.11 0 0 0 268.192 46.842 Q 269.369 45.936 270.1 44.9 A 24.083 24.083 0 0 0 271.358 42.738 Q 272.538 40.422 272.694 38.571 A 6.975 6.975 0 0 0 272.7 38.5 L 272.8 37.3 Q 272.8 32.368 269.212 31.941 A 6.028 6.028 0 0 0 268.5 31.9 A 5.962 5.962 0 0 0 263.895 33.959 A 8.273 8.273 0 0 0 263.3 34.7 A 15.444 15.444 0 0 0 260.799 39.942 Q 260.201 42.123 260.051 44.711 A 30.786 30.786 0 0 0 260 46.5 Z M 630 46.5 L 630.1 49 A 0.63 0.63 0 0 0 630.156 49.277 Q 630.313 49.6 630.9 49.6 A 15.756 15.756 0 0 0 633.987 49.012 A 12.437 12.437 0 0 0 636.5 47.95 A 14.11 14.11 0 0 0 638.192 46.842 Q 639.369 45.936 640.1 44.9 A 24.083 24.083 0 0 0 641.358 42.738 Q 642.538 40.422 642.694 38.571 A 6.975 6.975 0 0 0 642.7 38.5 L 642.8 37.3 Q 642.8 32.368 639.212 31.941 A 6.028 6.028 0 0 0 638.5 31.9 A 5.962 5.962 0 0 0 633.895 33.959 A 8.273 8.273 0 0 0 633.3 34.7 A 15.444 15.444 0 0 0 630.799 39.942 Q 630.201 42.123 630.051 44.711 A 30.786 30.786 0 0 0 630 46.5 Z M 609.8 18.4 L 607.4 18.3 Q 604.7 18.3 603.9 19.6 A 0.819 0.819 0 0 1 603.765 19.758 A 0.533 0.533 0 0 1 603.4 19.9 A 0.813 0.813 0 0 1 602.708 19.455 Q 602.24 18.714 602.132 16.744 A 23.792 23.792 0 0 1 602.1 15.45 A 22.865 22.865 0 0 1 602.165 13.659 Q 602.38 10.927 603.317 9.93 A 2.066 2.066 0 0 1 603.45 9.8 A 3.789 3.789 0 0 1 604.614 9.117 Q 605.714 8.692 607.399 8.616 A 16.833 16.833 0 0 1 608.15 8.6 A 15.28 15.28 0 0 1 609.669 8.67 Q 611.795 8.883 612.7 9.75 A 3.338 3.338 0 0 1 613.477 10.94 Q 613.874 11.931 613.898 13.402 A 11.768 11.768 0 0 1 613.9 13.6 A 12.79 12.79 0 0 1 613.844 14.847 Q 613.675 16.563 613 17.35 A 2.556 2.556 0 0 1 612.038 18.03 Q 611.221 18.377 609.97 18.399 A 9.739 9.739 0 0 1 609.8 18.4 Z" vector-effect="non-scaling-stroke"/></g></svg>